<svg width="67" height="71" viewBox="0 0 67 71" fill="none" xmlns="http://www.w3.org/2000/svg">
<path d="M35.7891 0.457031C47.0998 0.609336 56.1553 9.8178 56.1553 21.1074C56.1551 27.7119 52.9557 33.9704 47.5977 37.8467C46.6695 38.5183 46.123 39.6199 46.123 40.7871V51.6113C46.1229 54.6297 43.6668 57.0858 40.6484 57.0859H30.3584C27.34 57.0859 24.8839 54.6297 24.8838 51.6113V40.7871C24.8838 39.6202 24.3398 38.5196 23.4131 37.8496C18.0131 33.9436 14.8135 27.6368 14.8535 20.9814V20.9805C14.9199 9.52773 24.1842 0.313041 35.7891 0.457031ZM28.1934 51.6113C28.1934 52.8055 29.1643 53.7763 30.3584 53.7764H40.6484C41.8423 53.7762 42.8135 52.8056 42.8135 51.6113V46.1172H28.1934V51.6113ZM35.7451 3.7666C26.1673 3.63397 18.2194 11.2243 18.1631 21C18.1287 26.5914 20.8165 31.887 25.3525 35.168C27.1285 36.4526 28.1934 38.553 28.1934 40.7871V42.8076H33.8496V25.0537L33.166 25.4482L29.8311 27.374C29.0408 27.8308 28.0277 27.5599 27.5703 26.7676C27.1138 25.9765 27.3848 24.9647 28.1758 24.5078L31.5117 22.582L32.1943 22.1875L31.5117 21.793L28.1758 19.8682C27.3845 19.4113 27.1135 18.3986 27.5703 17.6074C28.0273 16.8156 29.0399 16.5447 29.8311 17.002L33.166 18.9268L33.8496 19.3213V13.6748C33.8497 12.7611 34.5903 12.0206 35.5039 12.0205C36.4178 12.0205 37.1591 12.7612 37.1592 13.6748V19.3223L37.8428 18.9277L41.1777 17.002C41.9689 16.5447 42.9806 16.8156 43.4375 17.6074C43.8944 18.3988 43.6237 19.4103 42.832 19.8672V19.8682L39.4971 21.7939L38.8145 22.1885L39.4971 22.582L42.832 24.5078C43.6236 24.9646 43.8943 25.9762 43.4375 26.7676V26.7686C42.981 27.5594 41.9693 27.8311 41.1777 27.374L37.8428 25.4482L37.1592 25.0537V42.8076H42.8135V40.7871C42.8135 38.5541 43.8788 36.4519 45.6572 35.165C50.1588 31.9085 52.8455 26.6544 52.8457 21.1074C52.8457 11.6716 45.1765 3.89333 35.7451 3.7666Z" fill="white" stroke="#193330" stroke-width="0.910872"/>
<path d="M11.5801 38.4104C15.8324 38.4105 19.2929 41.8709 19.293 46.1233C19.293 48.1651 18.4932 50.0235 17.1914 51.4055L16.8037 51.8167L17.2891 52.1086C20.5306 54.0559 22.702 57.6038 22.7021 61.6487V68.7356C22.7021 69.6492 21.9614 70.3896 21.0479 70.3899H2.11035C1.19655 70.3899 0.455078 69.6494 0.455078 68.7356V61.6487C0.455206 57.6032 2.62819 54.0549 5.87109 52.1077L6.35547 51.8167L5.96777 51.4045C4.66611 50.0226 3.86719 48.165 3.86719 46.1233C3.86729 41.8709 7.32814 38.4104 11.5801 38.4104ZM11.5801 53.8362C7.27062 53.8362 3.76582 57.3402 3.76562 61.6487V67.0813H19.3926V61.6487C19.3924 57.3403 15.8884 53.8363 11.5801 53.8362ZM11.5801 41.72C9.15155 41.7201 7.17686 43.6954 7.17676 46.1233C7.17676 48.5514 9.15156 50.5264 11.5801 50.5266C14.0082 50.5266 15.9834 48.5514 15.9834 46.1233C15.9833 43.6953 14.0083 41.72 11.5801 41.72Z" fill="white" stroke="#193330" stroke-width="0.910872"/>
<path d="M63.1514 9.47656C63.9401 9.01499 64.9539 9.27964 65.416 10.0684C65.8775 10.8566 65.6128 11.8705 64.8242 12.332L60.6895 14.7529C59.9001 15.2146 58.8864 14.9489 58.4248 14.1602L58.3467 14.0098C57.9983 13.2474 58.2772 12.3292 59.0166 11.8965L63.1514 9.47656Z" fill="white" stroke="#193330" stroke-width="0.910872"/>
<path d="M5.5918 10.0681C6.05333 9.27984 7.06701 9.01462 7.85645 9.47632L11.9912 11.8972C12.7796 12.3587 13.0444 13.372 12.583 14.1609C12.1216 14.949 11.1081 15.2148 10.3193 14.7537L6.18359 12.3328C5.44412 11.9 5.16504 10.9815 5.51367 10.2185L5.5918 10.0681Z" fill="white" stroke="#193330" stroke-width="0.910872"/>
<path d="M58.4248 26.9177C58.8864 26.1294 59.8997 25.8644 60.6885 26.3259L64.8242 28.7468C65.6127 29.2084 65.8775 30.2223 65.416 31.0105C64.9539 31.7991 63.9404 32.0635 63.1523 31.6023H63.1514L59.0166 29.1824C58.2771 28.7496 57.998 27.8311 58.3467 27.0681L58.4248 26.9177Z" fill="white" stroke="#193330" stroke-width="0.910872"/>
<path d="M10.3184 26.3267C11.1073 25.865 12.1215 26.1298 12.583 26.9185C13.0445 27.7066 12.7796 28.7205 11.9912 29.1821H11.9902L7.85547 31.603C7.06615 32.0644 6.05331 31.7993 5.5918 31.0112C5.1302 30.2224 5.39475 29.2087 6.18359 28.7466L10.3184 26.3267Z" fill="white" stroke="#193330" stroke-width="0.910872"/>
</svg>
