<svg width="74" height="74" viewBox="0 0 74 74" fill="none" xmlns="http://www.w3.org/2000/svg">
<path d="M1.26514 47.8586V8.17333C1.26514 4.52037 4.2264 1.26515 7.87936 1.26515H10.0841V41.2444" stroke="white" stroke-width="2.5302" stroke-miterlimit="10" stroke-linecap="round" stroke-linejoin="round"/>
<path d="M10.0841 10.3783H72.1108V54.4731H7.87939" stroke="white" stroke-width="2.5302" stroke-miterlimit="10" stroke-linecap="round" stroke-linejoin="round"/>
<path d="M14.4936 54.4731H7.87936C4.2264 54.4731 1.26514 51.5119 1.26514 47.8589C1.26514 44.206 4.2264 41.2447 7.87936 41.2447H10.0841" stroke="white" stroke-width="2.5302" stroke-miterlimit="10" stroke-linecap="round" stroke-linejoin="round"/>
<path d="M63.1447 67.7014C60.3215 70.5246 56.4921 72.1108 52.4994 72.1108H10.084V63.2919H52.4994C56.4921 63.2919 60.3215 64.8781 63.1447 67.7014Z" stroke="white" stroke-width="2.5302" stroke-miterlimit="10" stroke-linecap="round" stroke-linejoin="round"/>
<path d="M23.3125 63.2919V72.1108" stroke="white" stroke-width="2.5302" stroke-miterlimit="10" stroke-linecap="round" stroke-linejoin="round"/>
<path d="M18.9028 19.197V36.835L27.7218 28.016L18.9028 19.197Z" stroke="white" stroke-width="2.5302" stroke-miterlimit="10" stroke-linecap="round" stroke-linejoin="round"/>
<path d="M36.688 19.197V36.835L45.5069 28.016L36.688 19.197Z" stroke="white" stroke-width="2.5302" stroke-miterlimit="10" stroke-linecap="round" stroke-linejoin="round"/>
<path d="M54.3257 19.197V36.835L63.2916 28.016L54.3257 19.197Z" stroke="white" stroke-width="2.5302" stroke-miterlimit="10" stroke-linecap="round" stroke-linejoin="round"/>
<path d="M27.7222 28.0161H36.6881" stroke="white" stroke-width="2.5302" stroke-miterlimit="10" stroke-linecap="round" stroke-linejoin="round"/>
<path d="M45.5068 28.0161H54.3258" stroke="white" stroke-width="2.5302" stroke-miterlimit="10" stroke-linecap="round" stroke-linejoin="round"/>
<path d="M18.9028 45.6541H58.7351" stroke="white" stroke-width="2.5302" stroke-miterlimit="10" stroke-linecap="round" stroke-linejoin="round"/>
</svg>
