<svg width="71" height="71" viewBox="0 0 71 71" fill="none" xmlns="http://www.w3.org/2000/svg">
<path d="M6.22656 0.505859H31.4102C34.564 0.505901 37.1308 3.07273 37.1309 6.22656V22.9697C37.1307 26.1235 34.5639 28.6904 31.4102 28.6904H24.5391V33.8535H27.1201C27.9869 33.8535 28.6904 34.5561 28.6904 35.4229C28.6904 36.2896 27.9869 36.9922 27.1201 36.9922H10.3779C9.51116 36.9922 8.80861 36.2896 8.80859 35.4229C8.80859 34.5561 9.51115 33.8535 10.3779 33.8535H12.959V28.6904H6.22656C3.07279 28.6904 0.505992 26.1235 0.505859 22.9697V6.22656C0.505916 3.07274 3.07274 0.505917 6.22656 0.505859ZM16.0986 33.8535H21.4004V28.6904H16.0986V33.8535ZM3.64551 22.9697C3.64564 24.3935 4.80275 25.5507 6.22656 25.5508H31.4102C32.834 25.5507 33.9911 24.3935 33.9912 22.9697V20.3877H3.64551V22.9697ZM6.22656 3.64551C4.80271 3.64556 3.64556 4.80271 3.64551 6.22656V17.249H33.9912V6.22656C33.9912 4.8027 32.834 3.64555 31.4102 3.64551H6.22656Z" fill="white" stroke="#193330" stroke-width="1.01208"/>
<path d="M48.0142 33.8533H68.77C69.6366 33.8534 70.3392 34.5561 70.3394 35.4226V68.7703C70.3393 69.637 69.6367 70.3395 68.77 70.3396H48.0142C44.8603 70.3395 42.2935 67.7728 42.2935 64.6189V39.574C42.2935 36.4202 44.8603 33.8533 48.0142 33.8533ZM48.0142 62.0378C46.5903 62.0379 45.4332 63.1951 45.4331 64.6189C45.4331 66.0428 46.5903 67.2009 48.0142 67.2009H67.2007V62.0378H48.0142ZM48.0142 36.9929C46.5903 36.993 45.4332 38.1501 45.4331 39.574V59.4656L46.1079 59.2263C46.7046 59.0147 47.3458 58.8982 48.0142 58.8982H67.2007V36.9929H62.0376V47.8767C62.0374 48.5112 61.6543 49.083 61.0679 49.3259C60.4824 49.5682 59.8073 49.4356 59.3579 48.9861L56.3169 45.9451L55.9585 46.3025L53.2749 48.9861C52.8262 49.4348 52.1513 49.5688 51.5649 49.3259C50.9786 49.0831 50.5964 48.5114 50.5962 47.8767V36.9929H48.0142ZM53.7349 44.0867L54.5991 43.2234L55.2065 42.616V42.615C55.5129 42.3084 55.9144 42.156 56.3169 42.156C56.7193 42.1561 57.12 42.3086 57.4263 42.615V42.616L58.0347 43.2234L58.8979 44.0867V36.9929H53.7349V44.0867Z" fill="white" stroke="#193330" stroke-width="1.01208"/>
<path d="M43.8628 0.505859H48.0142C57.3542 0.505859 65.0775 7.64455 66.0786 16.7979L66.1274 17.249H68.77C69.3733 17.2491 69.9227 17.595 70.1841 18.1387C70.4454 18.6825 70.3724 19.3276 69.9956 19.7988L61.6929 30.1768C61.395 30.5489 60.944 30.7656 60.4673 30.7656C59.9906 30.7655 59.5396 30.549 59.2417 30.1768L50.9399 19.7988C50.5631 19.3277 50.4893 18.6823 50.7505 18.1387C51.0119 17.5949 51.5622 17.249 52.1655 17.249H54.7163L54.6821 16.7109C54.4549 13.0912 53.6269 10.0476 52.2114 7.86035C50.37 5.01486 47.6051 3.64551 43.8628 3.64551C42.9962 3.64531 42.2935 2.94186 42.2935 2.0752C42.2937 1.2087 42.9963 0.506054 43.8628 0.505859ZM55.7593 5.81738L55.063 6.51172C56.8937 9.53585 57.8862 13.6736 57.8862 18.8184C57.8862 19.6435 57.2488 20.3202 56.4399 20.3828L55.4858 20.457L56.0835 21.2041L60.0728 26.1895L60.4673 26.6836L60.8628 26.1895L65.4487 20.457L64.4956 20.3828C63.6866 20.3202 63.0493 19.6435 63.0493 18.8184C63.0493 13.3088 60.1238 8.47529 55.7593 5.81738Z" fill="white" stroke="#193330" stroke-width="1.01208"/>
<path d="M18.8184 40.0798C19.2951 40.0799 19.746 40.2965 20.0439 40.6687L28.3457 51.0466C28.7226 51.5178 28.7963 52.1631 28.5352 52.7068C28.2738 53.2506 27.7235 53.5964 27.1201 53.5964H24.5703L24.6055 54.1355C24.8406 57.7537 25.676 61.013 27.417 63.3787C29.1785 65.772 31.8315 67.2009 35.5615 67.2009C36.4281 67.2012 37.1309 67.9036 37.1309 68.7703C37.1308 69.6368 36.4281 70.3394 35.5615 70.3396H31.4102C21.9804 70.3396 14.2118 63.082 13.209 54.0466L13.1592 53.5964H10.5156C9.91246 53.5963 9.36288 53.2504 9.10156 52.7068C8.84039 52.163 8.91328 51.5178 9.29004 51.0466L17.5928 40.6687C17.8907 40.2965 18.3416 40.0798 18.8184 40.0798ZM18.4229 44.656L14.4346 49.6423L13.8369 50.3884L14.79 50.4626C15.599 50.5253 16.2362 51.202 16.2363 52.0271C16.2363 57.5339 19.1845 62.3636 23.582 65.0222L24.2754 64.324C22.3815 61.247 21.3994 57.1248 21.3994 52.0271C21.3995 51.2021 22.037 50.5254 22.8457 50.4626L23.7998 50.3894L23.2021 49.6423L19.2139 44.656L18.8184 44.1619L18.4229 44.656Z" fill="white" stroke="#193330" stroke-width="1.01208"/>
</svg>
