<svg width="70" height="70" viewBox="0 0 70 70" fill="none" xmlns="http://www.w3.org/2000/svg">
<path d="M2.05176 0.5H26.7627C27.619 0.500259 28.3132 1.19446 28.3135 2.05078V21.7881L29.167 20.9346L46.29 3.8125C46.896 3.20661 47.8779 3.20687 48.4834 3.8125L65.9561 21.2852C66.5619 21.891 66.5619 22.8727 65.9561 23.4785L47.749 41.6855H67.9492C68.8058 41.6857 69.5 42.3807 69.5 43.2373V67.9492C69.4997 68.8056 68.8057 69.4999 67.9492 69.5H2.05078C1.19446 69.4997 0.50026 68.8055 0.5 67.9492V2.05078C0.500258 1.1943 1.19522 0.5 2.05176 0.5ZM3.60254 66.3975H66.3975V44.7881H3.60254V66.3975ZM3.60254 41.6855H25.2109V3.60254H3.60254V41.6855ZM28.3135 41.6855H35.4043L34.5508 40.832L29.167 35.4492L28.3135 34.5957V41.6855ZM47.0332 7.45703L28.46 26.0283L28.3135 26.1748V33.2842L29.167 32.4307L34.5801 27.0186C35.1859 26.4129 36.1678 26.4128 36.7734 27.0186L42.5977 32.8428C43.2035 33.4486 43.2035 34.4313 42.5977 35.0371L35.9492 41.6855H43.3623L62.666 22.3818L62.3125 22.0283L47.7402 7.45703L47.3867 7.10352L47.0332 7.45703ZM32.0459 33.9404L32.3994 34.2939L35.3232 37.2168L35.6768 37.5713L36.0303 37.2168L38.9541 34.2939L39.3076 33.9404L35.6768 30.3096L32.0459 33.9404Z" fill="white" stroke="#193330"/>
<path d="M14.4072 49.9231C17.533 49.9231 20.0771 52.4671 20.0771 55.593C20.0771 58.7189 17.5331 61.2629 14.4072 61.2629C11.2813 61.2629 8.73738 58.7188 8.7373 55.593C8.7373 52.4672 11.2813 49.9231 14.4072 49.9231ZM14.4072 53.0256C12.9912 53.0256 11.8398 54.1769 11.8398 55.593C11.8399 57.0091 12.9911 58.1604 14.4072 58.1604C15.8232 58.1604 16.9746 57.0091 16.9746 55.593C16.9746 54.1771 15.8233 53.0256 14.4072 53.0256Z" fill="white" stroke="#193330"/>
<path d="M35 49.9231H43.2373C44.0938 49.9231 44.7888 50.6174 44.7891 51.4739V59.7112C44.7891 60.5679 44.094 61.2629 43.2373 61.2629H35C34.1435 61.2627 33.4492 60.5677 33.4492 59.7112V51.4739C33.4495 50.6176 34.1437 49.9234 35 49.9231ZM36.5518 58.1604H41.6865V53.0256H36.5518V58.1604Z" fill="white" stroke="#193330"/>
<path d="M51.4736 49.9231H59.7109C60.5675 49.9231 61.2624 50.6174 61.2627 51.4739V59.7112C61.2627 60.5679 60.5676 61.2629 59.7109 61.2629H51.4736C50.6172 61.2627 49.9229 60.5677 49.9229 59.7112V51.4739C49.9231 50.6176 50.6173 49.9234 51.4736 49.9231ZM53.0254 58.1604H58.1602V53.0256H53.0254V58.1604Z" fill="white" stroke="#193330"/>
<path d="M10.2881 25.2114H18.5254C19.3819 25.2114 20.0769 25.9057 20.0771 26.7622V34.9995C20.0771 35.8562 19.3821 36.5513 18.5254 36.5513H10.2881C9.43161 36.551 8.7373 35.8561 8.7373 34.9995V26.7622C8.73756 25.9059 9.43176 25.2117 10.2881 25.2114ZM11.8398 33.4487H16.9746V28.314H11.8398V33.4487Z" fill="white" stroke="#193330"/>
<path d="M10.2881 8.73706H18.5254C19.3819 8.73706 20.0769 9.43136 20.0771 10.2878V18.5251C20.0771 19.3818 19.3821 20.0769 18.5254 20.0769H10.2881C9.43161 20.0766 8.7373 19.3817 8.7373 18.5251V10.2878C8.73756 9.43152 9.43176 8.73732 10.2881 8.73706ZM11.8398 16.9744H16.9746V11.8396H11.8398V16.9744Z" fill="white" stroke="#193330"/>
<path d="M46.2295 15.3691C46.8353 14.7636 47.8173 14.7636 48.4229 15.3691L54.248 21.1943C54.8534 21.8001 54.8535 22.782 54.248 23.3877L48.4229 29.2129C47.8172 29.8183 46.8351 29.8181 46.2295 29.2129L40.4043 23.3877C39.7988 22.782 39.7988 21.8001 40.4043 21.1943L46.2295 15.3691ZM43.6953 22.291L47.3262 25.9219L50.957 22.291L47.3262 18.6602L43.6953 22.291Z" fill="white" stroke="#193330"/>
</svg>
