<svg width="1728" height="1372" viewBox="0 0 1728 1372" fill="none" xmlns="http://www.w3.org/2000/svg">
<path d="M0 149.557L1728 0V1371.5L0 1274.68V149.557Z" fill="#D8B38F" fill-opacity="0.12"/>
<line y1="-1.11111" x2="41.0382" y2="-1.11111" transform="matrix(0.60195 -0.798534 0.984907 0.173085 1183.97 176.977)" stroke="#D8B38F" stroke-opacity="0.27" stroke-width="2.22222"/>
<line y1="-1.11111" x2="47.0773" y2="-1.11111" transform="matrix(0.767101 -0.641526 0.963272 0.268528 1337.93 175.889)" stroke="#D8B38F" stroke-opacity="0.27" stroke-width="2.22222"/>
<line y1="-1.11111" x2="53.5638" y2="-1.11111" transform="matrix(0.866749 -0.498745 0.926823 0.375499 1492.7 174.798)" stroke="#D8B38F" stroke-opacity="0.27" stroke-width="2.22222"/>
<line y1="-1.11111" x2="59.6971" y2="-1.11111" transform="matrix(0.926822 -0.3755 0.866748 0.498746 1648.52 172.619)" stroke="#D8B38F" stroke-opacity="0.27" stroke-width="2.22222"/>
<line y1="-1.11111" x2="59.6971" y2="-1.11111" transform="matrix(-0.926822 -0.3755 0.866748 -0.498746 106.414 172.619)" stroke="#D8B38F" stroke-opacity="0.27" stroke-width="2.22222"/>
<line y1="-1.11111" x2="53.5636" y2="-1.11111" transform="matrix(-0.866748 -0.498746 0.926822 -0.3755 262.254 174.798)" stroke="#D8B38F" stroke-opacity="0.27" stroke-width="2.22222"/>
<line y1="-1.11111" x2="47.0774" y2="-1.11111" transform="matrix(-0.767102 -0.641525 0.963272 -0.268527 417.027 175.889)" stroke="#D8B38F" stroke-opacity="0.27" stroke-width="2.22222"/>
<line y1="-1.11111" x2="41.0381" y2="-1.11111" transform="matrix(-0.601948 -0.798535 0.984907 -0.173086 570.986 176.977)" stroke="#D8B38F" stroke-opacity="0.27" stroke-width="2.22222"/>
<line y1="-1.11111" x2="36.5622" y2="-1.11111" transform="matrix(-0.343032 -0.939324 0.996395 -0.0848301 724.378 178.068)" stroke="#D8B38F" stroke-opacity="0.27" stroke-width="2.22222"/>
<line x1="876.365" y1="178.068" x2="876.365" y2="143.194" stroke="#D8B38F" stroke-opacity="0.27" stroke-width="2.22222"/>
<line y1="-1.11111" x2="36.5622" y2="-1.11111" transform="matrix(0.343032 -0.939324 0.996395 0.0848301 1030.58 178.068)" stroke="#D8B38F" stroke-opacity="0.27" stroke-width="2.22222"/>
<line y1="-1.11111" x2="41.0381" y2="-1.11111" transform="matrix(0.601948 -0.798535 0.984907 0.173086 1021.47 238.007)" stroke="#D8B38F" stroke-opacity="0.27" stroke-width="2.22222"/>
<line y1="-1.11111" x2="47.0774" y2="-1.11111" transform="matrix(0.767102 -0.641525 0.963272 0.268527 1175.41 236.917)" stroke="#D8B38F" stroke-opacity="0.27" stroke-width="2.22222"/>
<line y1="-1.11111" x2="53.5636" y2="-1.11111" transform="matrix(0.866748 -0.498746 0.926822 0.3755 1330.18 235.828)" stroke="#D8B38F" stroke-opacity="0.27" stroke-width="2.22222"/>
<line y1="-1.11111" x2="59.6971" y2="-1.11111" transform="matrix(0.926822 -0.3755 0.866748 0.498746 1486.02 233.649)" stroke="#D8B38F" stroke-opacity="0.27" stroke-width="2.22222"/>
<line y1="-1.11111" x2="64.9348" y2="-1.11111" transform="matrix(0.963272 -0.268527 0.767102 0.641525 1643.1 230.379)" stroke="#D8B38F" stroke-opacity="0.27" stroke-width="2.22222"/>
<line y1="-1.11111" x2="53.5636" y2="-1.11111" transform="matrix(-0.866748 -0.498746 0.926822 -0.3755 99.7549 235.828)" stroke="#D8B38F" stroke-opacity="0.27" stroke-width="2.22222"/>
<line y1="-1.11111" x2="47.0774" y2="-1.11111" transform="matrix(-0.767102 -0.641525 0.963272 -0.268527 254.529 236.917)" stroke="#D8B38F" stroke-opacity="0.27" stroke-width="2.22222"/>
<line y1="-1.11111" x2="41.0381" y2="-1.11111" transform="matrix(-0.601949 -0.798535 0.984907 -0.173086 408.465 238.007)" stroke="#D8B38F" stroke-opacity="0.27" stroke-width="2.22222"/>
<line y1="-1.11111" x2="36.5621" y2="-1.11111" transform="matrix(-0.343031 -0.939324 0.996395 -0.0848303 561.858 239.095)" stroke="#D8B38F" stroke-opacity="0.27" stroke-width="2.22222"/>
<line x1="713.845" y1="239.095" x2="713.845" y2="204.222" stroke="#D8B38F" stroke-opacity="0.27" stroke-width="2.22222"/>
<line y1="-1.11111" x2="36.5622" y2="-1.11111" transform="matrix(0.343032 -0.939324 0.996395 0.0848301 868.077 239.095)" stroke="#D8B38F" stroke-opacity="0.27" stroke-width="2.22222"/>
<line y1="-1.11111" x2="41.0381" y2="-1.11111" transform="matrix(0.601948 -0.798535 0.984907 0.173086 858.948 299.037)" stroke="#D8B38F" stroke-opacity="0.27" stroke-width="2.22222"/>
<line y1="-1.11111" x2="47.0774" y2="-1.11111" transform="matrix(0.767102 -0.641525 0.963272 0.268527 1012.91 297.946)" stroke="#D8B38F" stroke-opacity="0.27" stroke-width="2.22222"/>
<line y1="-1.11111" x2="53.5636" y2="-1.11111" transform="matrix(0.866748 -0.498746 0.926822 0.3755 1167.68 296.855)" stroke="#D8B38F" stroke-opacity="0.27" stroke-width="2.22222"/>
<line y1="-1.11111" x2="59.697" y2="-1.11111" transform="matrix(0.926822 -0.375501 0.866748 0.498747 1323.52 294.676)" stroke="#D8B38F" stroke-opacity="0.27" stroke-width="2.22222"/>
<line y1="-1.11111" x2="64.9346" y2="-1.11111" transform="matrix(0.963272 -0.268528 0.767101 0.641526 1480.61 291.406)" stroke="#D8B38F" stroke-opacity="0.27" stroke-width="2.22222"/>
<line y1="-1.11111" x2="68.9107" y2="-1.11111" transform="matrix(0.984907 -0.173086 0.601949 0.798535 1639.12 289.227)" stroke="#D8B38F" stroke-opacity="0.27" stroke-width="2.22222"/>
<line y1="-1.11111" x2="47.0774" y2="-1.11111" transform="matrix(-0.767102 -0.641525 0.963272 -0.268527 92.0078 297.946)" stroke="#D8B38F" stroke-opacity="0.27" stroke-width="2.22222"/>
<line y1="-1.11111" x2="41.0381" y2="-1.11111" transform="matrix(-0.601949 -0.798535 0.984907 -0.173086 245.967 299.037)" stroke="#D8B38F" stroke-opacity="0.27" stroke-width="2.22222"/>
<line y1="-1.11111" x2="36.5622" y2="-1.11111" transform="matrix(-0.343032 -0.939324 0.996395 -0.0848301 399.359 300.125)" stroke="#D8B38F" stroke-opacity="0.27" stroke-width="2.22222"/>
<line x1="551.346" y1="300.125" x2="551.346" y2="265.251" stroke="#D8B38F" stroke-opacity="0.27" stroke-width="2.22222"/>
<line y1="-1.11111" x2="36.5622" y2="-1.11111" transform="matrix(0.343032 -0.939324 0.996395 0.0848301 705.556 300.125)" stroke="#D8B38F" stroke-opacity="0.27" stroke-width="2.22222"/>
<line y1="-1.11111" x2="41.0381" y2="-1.11111" transform="matrix(0.601949 -0.798535 0.984907 0.173086 696.449 360.064)" stroke="#D8B38F" stroke-opacity="0.27" stroke-width="2.22222"/>
<line y1="-1.11111" x2="47.0774" y2="-1.11111" transform="matrix(0.767102 -0.641525 0.963272 0.268527 850.387 358.976)" stroke="#D8B38F" stroke-opacity="0.27" stroke-width="2.22222"/>
<line y1="-1.11111" x2="53.5636" y2="-1.11111" transform="matrix(0.866748 -0.498746 0.926822 0.3755 1005.16 357.885)" stroke="#D8B38F" stroke-opacity="0.27" stroke-width="2.22222"/>
<line y1="-1.11111" x2="59.697" y2="-1.11111" transform="matrix(0.926822 -0.3755 0.866748 0.498746 1161 355.705)" stroke="#D8B38F" stroke-opacity="0.27" stroke-width="2.22222"/>
<line y1="-1.11111" x2="64.9348" y2="-1.11111" transform="matrix(0.963272 -0.268527 0.767102 0.641525 1318.11 352.435)" stroke="#D8B38F" stroke-opacity="0.27" stroke-width="2.22222"/>
<line y1="-1.11111" x2="68.9105" y2="-1.11111" transform="matrix(0.984907 -0.173086 0.601948 0.798535 1476.62 350.256)" stroke="#D8B38F" stroke-opacity="0.27" stroke-width="2.22222"/>
<line y1="-1.11111" x2="71.3863" y2="-1.11111" transform="matrix(0.996395 -0.0848303 0.343031 0.939324 1636.69 346.986)" stroke="#D8B38F" stroke-opacity="0.27" stroke-width="2.22222"/>
<line y1="-1.11111" x2="41.0381" y2="-1.11111" transform="matrix(-0.601949 -0.798535 0.984907 -0.173086 83.4463 360.063)" stroke="#D8B38F" stroke-opacity="0.27" stroke-width="2.22222"/>
<line y1="-1.11111" x2="36.5621" y2="-1.11111" transform="matrix(-0.343031 -0.939324 0.996395 -0.0848303 236.839 361.155)" stroke="#D8B38F" stroke-opacity="0.27" stroke-width="2.22222"/>
<line x1="388.825" y1="361.155" x2="388.825" y2="326.281" stroke="#D8B38F" stroke-opacity="0.27" stroke-width="2.22222"/>
<line y1="-1.11111" x2="36.5621" y2="-1.11111" transform="matrix(0.343031 -0.939324 0.996395 0.0848303 543.058 361.155)" stroke="#D8B38F" stroke-opacity="0.27" stroke-width="2.22222"/>
<line y1="-1.11111" x2="41.0381" y2="-1.11111" transform="matrix(0.601948 -0.798535 0.984907 0.173086 533.929 421.093)" stroke="#D8B38F" stroke-opacity="0.27" stroke-width="2.22222"/>
<line y1="-1.11111" x2="47.0774" y2="-1.11111" transform="matrix(0.767102 -0.641525 0.963272 0.268527 687.888 420.002)" stroke="#D8B38F" stroke-opacity="0.27" stroke-width="2.22222"/>
<line y1="-1.11111" x2="53.5637" y2="-1.11111" transform="matrix(0.866748 -0.498746 0.926823 0.3755 842.662 418.914)" stroke="#D8B38F" stroke-opacity="0.27" stroke-width="2.22222"/>
<line y1="-1.11111" x2="59.6971" y2="-1.11111" transform="matrix(0.926822 -0.3755 0.866748 0.498746 998.5 416.732)" stroke="#D8B38F" stroke-opacity="0.27" stroke-width="2.22222"/>
<line y1="-1.11111" x2="64.9348" y2="-1.11111" transform="matrix(0.963272 -0.268527 0.767102 0.641525 1155.59 413.465)" stroke="#D8B38F" stroke-opacity="0.27" stroke-width="2.22222"/>
<line y1="-1.11111" x2="68.9107" y2="-1.11111" transform="matrix(0.984907 -0.173085 0.601949 0.798534 1314.1 411.283)" stroke="#D8B38F" stroke-opacity="0.27" stroke-width="2.22222"/>
<line y1="-1.11111" x2="71.3865" y2="-1.11111" transform="matrix(0.996395 -0.0848301 0.343032 0.939324 1474.17 408.016)" stroke="#D8B38F" stroke-opacity="0.27" stroke-width="2.22222"/>
<line y1="-1.11111" x2="36.5621" y2="-1.11111" transform="matrix(-0.343031 -0.939324 0.996395 -0.0848302 74.3403 422.182)" stroke="#D8B38F" stroke-opacity="0.27" stroke-width="2.22222"/>
<line x1="226.327" y1="422.182" x2="226.327" y2="387.308" stroke="#D8B38F" stroke-opacity="0.27" stroke-width="2.22222"/>
<line y1="-1.11111" x2="36.5621" y2="-1.11111" transform="matrix(0.343031 -0.939324 0.996395 0.0848303 380.537 422.182)" stroke="#D8B38F" stroke-opacity="0.27" stroke-width="2.22222"/>
<line x1="1726.14" y1="405.857" x2="1653.92" y2="405.857" stroke="#D8B38F" stroke-opacity="0.27" stroke-width="2.22222"/>
<line y1="-1.11111" x2="41.0381" y2="-1.11111" transform="matrix(0.601949 -0.798535 0.984907 0.173086 371.431 482.121)" stroke="#D8B38F" stroke-opacity="0.27" stroke-width="2.22222"/>
<line y1="-1.11111" x2="47.0774" y2="-1.11111" transform="matrix(0.767102 -0.641525 0.963272 0.268527 525.367 481.032)" stroke="#D8B38F" stroke-opacity="0.27" stroke-width="2.22222"/>
<line y1="-1.11111" x2="53.5637" y2="-1.11111" transform="matrix(0.866748 -0.498746 0.926823 0.3755 680.141 479.941)" stroke="#D8B38F" stroke-opacity="0.27" stroke-width="2.22222"/>
<line y1="-1.11111" x2="59.6971" y2="-1.11111" transform="matrix(0.926822 -0.3755 0.866748 0.498746 835.98 477.762)" stroke="#D8B38F" stroke-opacity="0.27" stroke-width="2.22222"/>
<line y1="-1.11111" x2="64.9347" y2="-1.11111" transform="matrix(0.963272 -0.268528 0.767102 0.641526 993.088 474.492)" stroke="#D8B38F" stroke-opacity="0.27" stroke-width="2.22222"/>
<line y1="-1.11111" x2="68.9106" y2="-1.11111" transform="matrix(0.984907 -0.173086 0.601948 0.798535 1151.6 472.313)" stroke="#D8B38F" stroke-opacity="0.27" stroke-width="2.22222"/>
<line y1="-1.11111" x2="71.3863" y2="-1.11111" transform="matrix(0.996395 -0.0848303 0.343031 0.939324 1311.67 469.043)" stroke="#D8B38F" stroke-opacity="0.27" stroke-width="2.22222"/>
<line x1="63.8069" y1="483.211" x2="63.8069" y2="448.338" stroke="#D8B38F" stroke-opacity="0.27" stroke-width="2.22222"/>
<line y1="-1.11111" x2="36.5622" y2="-1.11111" transform="matrix(0.343032 -0.939324 0.996395 0.0848302 218.038 483.211)" stroke="#D8B38F" stroke-opacity="0.27" stroke-width="2.22222"/>
<line x1="1563.62" y1="466.887" x2="1491.39" y2="466.887" stroke="#D8B38F" stroke-opacity="0.27" stroke-width="2.22222"/>
<line y1="-1.11111" x2="71.3865" y2="-1.11111" transform="matrix(-0.996395 -0.0848301 0.343032 -0.939324 1725.33 469.043)" stroke="#D8B38F" stroke-opacity="0.27" stroke-width="2.22222"/>
<line y1="-1.11111" x2="41.0381" y2="-1.11111" transform="matrix(0.601949 -0.798535 0.984907 0.173086 208.91 543.15)" stroke="#D8B38F" stroke-opacity="0.27" stroke-width="2.22222"/>
<line y1="-1.11111" x2="47.0774" y2="-1.11111" transform="matrix(0.767102 -0.641526 0.963272 0.268528 362.869 542.06)" stroke="#D8B38F" stroke-opacity="0.27" stroke-width="2.22222"/>
<line y1="-1.11111" x2="53.5637" y2="-1.11111" transform="matrix(0.866748 -0.498746 0.926822 0.3755 517.643 540.971)" stroke="#D8B38F" stroke-opacity="0.27" stroke-width="2.22222"/>
<line y1="-1.11111" x2="59.6971" y2="-1.11111" transform="matrix(0.926822 -0.3755 0.866748 0.498746 673.482 538.792)" stroke="#D8B38F" stroke-opacity="0.27" stroke-width="2.22222"/>
<line y1="-1.11111" x2="64.9347" y2="-1.11111" transform="matrix(0.963272 -0.268528 0.767102 0.641526 830.566 535.522)" stroke="#D8B38F" stroke-opacity="0.27" stroke-width="2.22222"/>
<line y1="-1.11111" x2="68.9106" y2="-1.11111" transform="matrix(0.984907 -0.173086 0.601949 0.798535 989.078 533.342)" stroke="#D8B38F" stroke-opacity="0.27" stroke-width="2.22222"/>
<line y1="-1.11111" x2="71.3864" y2="-1.11111" transform="matrix(0.996395 -0.0848302 0.343031 0.939324 1149.15 530.073)" stroke="#D8B38F" stroke-opacity="0.27" stroke-width="2.22222"/>
<line y1="-1.11111" x2="36.5621" y2="-1.11111" transform="matrix(0.343031 -0.939324 0.996395 0.0848303 55.5176 544.241)" stroke="#D8B38F" stroke-opacity="0.27" stroke-width="2.22222"/>
<line x1="1401.12" y1="527.913" x2="1328.9" y2="527.913" stroke="#D8B38F" stroke-opacity="0.27" stroke-width="2.22222"/>
<line y1="-1.11111" x2="71.3863" y2="-1.11111" transform="matrix(-0.996395 -0.0848303 0.343031 -0.939324 1562.81 530.073)" stroke="#D8B38F" stroke-opacity="0.27" stroke-width="2.22222"/>
<line y1="-1.11111" x2="68.9105" y2="-1.11111" transform="matrix(-0.984907 -0.173086 0.601948 -0.798535 1722.88 533.342)" stroke="#D8B38F" stroke-opacity="0.27" stroke-width="2.22222"/>
<line y1="-1.11111" x2="41.0381" y2="-1.11111" transform="matrix(0.601949 -0.798535 0.984907 0.173086 46.4116 604.18)" stroke="#D8B38F" stroke-opacity="0.27" stroke-width="2.22222"/>
<line y1="-1.11111" x2="47.0774" y2="-1.11111" transform="matrix(0.767102 -0.641525 0.963272 0.268527 200.348 603.089)" stroke="#D8B38F" stroke-opacity="0.27" stroke-width="2.22222"/>
<line y1="-1.11111" x2="53.5636" y2="-1.11111" transform="matrix(0.866748 -0.498747 0.926822 0.375501 355.122 601.998)" stroke="#D8B38F" stroke-opacity="0.27" stroke-width="2.22222"/>
<line y1="-1.11111" x2="59.6971" y2="-1.11111" transform="matrix(0.926822 -0.3755 0.866748 0.498746 510.961 599.819)" stroke="#D8B38F" stroke-opacity="0.27" stroke-width="2.22222"/>
<line y1="-1.11111" x2="64.9348" y2="-1.11111" transform="matrix(0.963272 -0.268527 0.767102 0.641525 668.068 596.549)" stroke="#D8B38F" stroke-opacity="0.27" stroke-width="2.22222"/>
<line y1="-1.11111" x2="68.9106" y2="-1.11111" transform="matrix(0.984907 -0.173086 0.601949 0.798535 826.58 594.37)" stroke="#D8B38F" stroke-opacity="0.27" stroke-width="2.22222"/>
<line y1="-1.11111" x2="71.3864" y2="-1.11111" transform="matrix(0.996395 -0.0848302 0.343031 0.939324 986.655 591.103)" stroke="#D8B38F" stroke-opacity="0.27" stroke-width="2.22222"/>
<line y1="-1.11111" x2="64.9346" y2="-1.11111" transform="matrix(-0.963272 -0.268528 0.767101 -0.641526 1718.89 596.549)" stroke="#D8B38F" stroke-opacity="0.27" stroke-width="2.22222"/>
<line x1="1238.62" y1="588.944" x2="1166.4" y2="588.944" stroke="#D8B38F" stroke-opacity="0.27" stroke-width="2.22222"/>
<line y1="-1.11111" x2="71.3863" y2="-1.11111" transform="matrix(-0.996395 -0.0848303 0.343031 -0.939324 1400.31 591.103)" stroke="#D8B38F" stroke-opacity="0.27" stroke-width="2.22222"/>
<line y1="-1.11111" x2="68.9107" y2="-1.11111" transform="matrix(-0.984907 -0.173085 0.601949 -0.798534 1560.36 594.37)" stroke="#D8B38F" stroke-opacity="0.27" stroke-width="2.22222"/>
<line y1="-1.11111" x2="47.0774" y2="-1.11111" transform="matrix(0.767102 -0.641525 0.963272 0.268527 37.8496 664.119)" stroke="#D8B38F" stroke-opacity="0.27" stroke-width="2.22222"/>
<line y1="-1.11111" x2="53.5636" y2="-1.11111" transform="matrix(0.866748 -0.498746 0.926822 0.3755 192.624 663.028)" stroke="#D8B38F" stroke-opacity="0.27" stroke-width="2.22222"/>
<line y1="-1.11111" x2="59.6971" y2="-1.11111" transform="matrix(0.926822 -0.3755 0.866748 0.498746 348.463 660.849)" stroke="#D8B38F" stroke-opacity="0.27" stroke-width="2.22222"/>
<line y1="-1.11111" x2="64.9347" y2="-1.11111" transform="matrix(0.963272 -0.268527 0.767102 0.641525 505.547 657.578)" stroke="#D8B38F" stroke-opacity="0.27" stroke-width="2.22222"/>
<line y1="-1.11111" x2="68.9106" y2="-1.11111" transform="matrix(0.984907 -0.173086 0.601949 0.798535 664.059 655.399)" stroke="#D8B38F" stroke-opacity="0.27" stroke-width="2.22222"/>
<line y1="-1.11111" x2="71.3864" y2="-1.11111" transform="matrix(0.996395 -0.0848302 0.343031 0.939324 824.134 652.129)" stroke="#D8B38F" stroke-opacity="0.27" stroke-width="2.22222"/>
<line y1="-1.11111" x2="64.9348" y2="-1.11111" transform="matrix(-0.963272 -0.268527 0.767102 -0.641525 1556.37 657.578)" stroke="#D8B38F" stroke-opacity="0.27" stroke-width="2.22222"/>
<line y1="-1.11111" x2="59.6971" y2="-1.11111" transform="matrix(-0.926823 -0.3755 0.866748 -0.498746 1713.48 660.849)" stroke="#D8B38F" stroke-opacity="0.27" stroke-width="2.22222"/>
<line x1="1076.1" y1="649.97" x2="1003.88" y2="649.97" stroke="#D8B38F" stroke-opacity="0.27" stroke-width="2.22222"/>
<line y1="-1.11111" x2="71.3864" y2="-1.11111" transform="matrix(-0.996395 -0.0848302 0.343031 -0.939324 1237.79 652.129)" stroke="#D8B38F" stroke-opacity="0.27" stroke-width="2.22222"/>
<line y1="-1.11111" x2="68.9107" y2="-1.11111" transform="matrix(-0.984907 -0.173085 0.601949 -0.798534 1397.86 655.399)" stroke="#D8B38F" stroke-opacity="0.27" stroke-width="2.22222"/>
<line y1="-1.11111" x2="53.5636" y2="-1.11111" transform="matrix(0.866748 -0.498746 0.926822 0.3755 30.1025 724.057)" stroke="#D8B38F" stroke-opacity="0.27" stroke-width="2.22222"/>
<line y1="-1.11111" x2="59.6971" y2="-1.11111" transform="matrix(0.926822 -0.375501 0.866748 0.498747 185.941 721.875)" stroke="#D8B38F" stroke-opacity="0.27" stroke-width="2.22222"/>
<line y1="-1.11111" x2="64.9347" y2="-1.11111" transform="matrix(0.963272 -0.268527 0.767102 0.641525 343.049 718.608)" stroke="#D8B38F" stroke-opacity="0.27" stroke-width="2.22222"/>
<line y1="-1.11111" x2="68.9106" y2="-1.11111" transform="matrix(0.984907 -0.173086 0.601949 0.798535 501.561 716.429)" stroke="#D8B38F" stroke-opacity="0.27" stroke-width="2.22222"/>
<line y1="-1.11111" x2="71.3863" y2="-1.11111" transform="matrix(0.996395 -0.0848303 0.343031 0.939324 661.635 713.159)" stroke="#D8B38F" stroke-opacity="0.27" stroke-width="2.22222"/>
<line y1="-1.11111" x2="64.9348" y2="-1.11111" transform="matrix(-0.963272 -0.268527 0.767102 -0.641525 1393.87 718.608)" stroke="#D8B38F" stroke-opacity="0.27" stroke-width="2.22222"/>
<line y1="-1.11111" x2="59.6971" y2="-1.11111" transform="matrix(-0.926822 -0.3755 0.866748 -0.498746 1550.96 721.875)" stroke="#D8B38F" stroke-opacity="0.27" stroke-width="2.22222"/>
<line y1="-1.11111" x2="53.5637" y2="-1.11111" transform="matrix(-0.866749 -0.498745 0.926823 -0.375499 1706.8 724.057)" stroke="#D8B38F" stroke-opacity="0.27" stroke-width="2.22222"/>
<line x1="913.605" y1="711" x2="841.379" y2="711" stroke="#D8B38F" stroke-opacity="0.27" stroke-width="2.22222"/>
<line y1="-1.11111" x2="71.3864" y2="-1.11111" transform="matrix(-0.996395 -0.0848302 0.343031 -0.939324 1075.29 713.159)" stroke="#D8B38F" stroke-opacity="0.27" stroke-width="2.22222"/>
<line y1="-1.11111" x2="68.9106" y2="-1.11111" transform="matrix(-0.984907 -0.173086 0.601949 -0.798535 1235.36 716.429)" stroke="#D8B38F" stroke-opacity="0.27" stroke-width="2.22222"/>
<line y1="-1.11111" x2="59.6971" y2="-1.11111" transform="matrix(0.926822 -0.3755 0.866748 0.498746 23.4434 782.905)" stroke="#D8B38F" stroke-opacity="0.27" stroke-width="2.22222"/>
<line y1="-1.11111" x2="64.9348" y2="-1.11111" transform="matrix(0.963272 -0.268527 0.767102 0.641525 180.528 779.635)" stroke="#D8B38F" stroke-opacity="0.27" stroke-width="2.22222"/>
<line y1="-1.11111" x2="68.9106" y2="-1.11111" transform="matrix(0.984907 -0.173086 0.601949 0.798535 339.04 777.456)" stroke="#D8B38F" stroke-opacity="0.27" stroke-width="2.22222"/>
<line y1="-1.11111" x2="71.3864" y2="-1.11111" transform="matrix(0.996395 -0.0848303 0.343031 0.939324 499.114 774.186)" stroke="#D8B38F" stroke-opacity="0.27" stroke-width="2.22222"/>
<line y1="-1.11111" x2="64.9347" y2="-1.11111" transform="matrix(-0.963272 -0.268528 0.767102 -0.641526 1231.35 779.635)" stroke="#D8B38F" stroke-opacity="0.27" stroke-width="2.22222"/>
<line y1="-1.11111" x2="59.697" y2="-1.11111" transform="matrix(-0.926822 -0.375501 0.866748 -0.498747 1388.46 782.905)" stroke="#D8B38F" stroke-opacity="0.27" stroke-width="2.22222"/>
<line y1="-1.11111" x2="53.5636" y2="-1.11111" transform="matrix(-0.866748 -0.498747 0.926822 -0.375501 1544.28 785.084)" stroke="#D8B38F" stroke-opacity="0.27" stroke-width="2.22222"/>
<line y1="-1.11111" x2="47.0773" y2="-1.11111" transform="matrix(-0.767101 -0.641526 0.963272 -0.268528 1699.07 786.175)" stroke="#D8B38F" stroke-opacity="0.27" stroke-width="2.22222"/>
<line x1="751.084" y1="772.03" x2="678.858" y2="772.03" stroke="#D8B38F" stroke-opacity="0.27" stroke-width="2.22222"/>
<line y1="-1.11111" x2="71.3864" y2="-1.11111" transform="matrix(-0.996395 -0.0848302 0.343031 -0.939324 912.767 774.186)" stroke="#D8B38F" stroke-opacity="0.27" stroke-width="2.22222"/>
<line y1="-1.11111" x2="68.9106" y2="-1.11111" transform="matrix(-0.984907 -0.173086 0.601949 -0.798535 1072.84 777.456)" stroke="#D8B38F" stroke-opacity="0.27" stroke-width="2.22222"/>
<line y1="-1.11111" x2="64.9348" y2="-1.11111" transform="matrix(0.963272 -0.268527 0.767102 0.641525 18.0303 840.665)" stroke="#D8B38F" stroke-opacity="0.27" stroke-width="2.22222"/>
<line y1="-1.11111" x2="68.9106" y2="-1.11111" transform="matrix(0.984907 -0.173086 0.601949 0.798535 176.542 838.486)" stroke="#D8B38F" stroke-opacity="0.27" stroke-width="2.22222"/>
<line y1="-1.11111" x2="71.3863" y2="-1.11111" transform="matrix(0.996395 -0.0848303 0.343031 0.939324 336.616 835.215)" stroke="#D8B38F" stroke-opacity="0.27" stroke-width="2.22222"/>
<line y1="-1.11111" x2="64.9347" y2="-1.11111" transform="matrix(-0.963272 -0.268528 0.767102 -0.641526 1068.86 840.665)" stroke="#D8B38F" stroke-opacity="0.27" stroke-width="2.22222"/>
<line y1="-1.11111" x2="59.697" y2="-1.11111" transform="matrix(-0.926822 -0.375501 0.866748 -0.498747 1225.94 843.935)" stroke="#D8B38F" stroke-opacity="0.27" stroke-width="2.22222"/>
<line y1="-1.11111" x2="53.5636" y2="-1.11111" transform="matrix(-0.866748 -0.498746 0.926822 -0.3755 1381.78 846.114)" stroke="#D8B38F" stroke-opacity="0.27" stroke-width="2.22222"/>
<line y1="-1.11111" x2="47.0775" y2="-1.11111" transform="matrix(-0.767102 -0.641525 0.963272 -0.268527 1536.55 847.202)" stroke="#D8B38F" stroke-opacity="0.27" stroke-width="2.22222"/>
<line y1="-1.11111" x2="41.0381" y2="-1.11111" transform="matrix(-0.601948 -0.798535 0.984907 -0.173086 1690.51 848.293)" stroke="#D8B38F" stroke-opacity="0.27" stroke-width="2.22222"/>
<line x1="588.586" y1="833.057" x2="516.36" y2="833.057" stroke="#D8B38F" stroke-opacity="0.27" stroke-width="2.22222"/>
<line y1="-1.11111" x2="71.3864" y2="-1.11111" transform="matrix(-0.996395 -0.0848302 0.343031 -0.939324 750.269 835.215)" stroke="#D8B38F" stroke-opacity="0.27" stroke-width="2.22222"/>
<line y1="-1.11111" x2="68.9107" y2="-1.11111" transform="matrix(-0.984907 -0.173085 0.601949 -0.798534 910.344 838.486)" stroke="#D8B38F" stroke-opacity="0.27" stroke-width="2.22222"/>
<line y1="-1.11111" x2="68.9106" y2="-1.11111" transform="matrix(0.984907 -0.173086 0.601949 0.798535 14.0205 899.513)" stroke="#D8B38F" stroke-opacity="0.27" stroke-width="2.22222"/>
<line y1="-1.11111" x2="71.3864" y2="-1.11111" transform="matrix(0.996395 -0.0848303 0.343031 0.939324 174.095 896.246)" stroke="#D8B38F" stroke-opacity="0.27" stroke-width="2.22222"/>
<line y1="-1.11111" x2="64.9347" y2="-1.11111" transform="matrix(-0.963272 -0.268528 0.767101 -0.641527 906.334 901.695)" stroke="#D8B38F" stroke-opacity="0.27" stroke-width="2.22222"/>
<line y1="-1.11111" x2="59.6971" y2="-1.11111" transform="matrix(-0.926823 -0.3755 0.866748 -0.498746 1063.44 904.962)" stroke="#D8B38F" stroke-opacity="0.27" stroke-width="2.22222"/>
<line y1="-1.11111" x2="53.5636" y2="-1.11111" transform="matrix(-0.866748 -0.498747 0.926822 -0.375501 1219.28 907.141)" stroke="#D8B38F" stroke-opacity="0.27" stroke-width="2.22222"/>
<line y1="-1.11111" x2="47.0775" y2="-1.11111" transform="matrix(-0.767102 -0.641525 0.963272 -0.268527 1374.05 908.232)" stroke="#D8B38F" stroke-opacity="0.27" stroke-width="2.22222"/>
<line y1="-1.11111" x2="41.0381" y2="-1.11111" transform="matrix(-0.601949 -0.798535 0.984907 -0.173086 1527.99 909.323)" stroke="#D8B38F" stroke-opacity="0.27" stroke-width="2.22222"/>
<line y1="-1.11111" x2="36.5622" y2="-1.11111" transform="matrix(-0.343032 -0.939324 0.996395 -0.0848301 1681.38 910.412)" stroke="#D8B38F" stroke-opacity="0.27" stroke-width="2.22222"/>
<line x1="426.065" y1="894.087" x2="353.839" y2="894.087" stroke="#D8B38F" stroke-opacity="0.27" stroke-width="2.22222"/>
<line y1="-1.11111" x2="71.3864" y2="-1.11111" transform="matrix(-0.996395 -0.0848303 0.343031 -0.939324 587.749 896.246)" stroke="#D8B38F" stroke-opacity="0.27" stroke-width="2.22222"/>
<line y1="-1.11111" x2="68.9107" y2="-1.11111" transform="matrix(-0.984907 -0.173085 0.601949 -0.798534 747.822 899.513)" stroke="#D8B38F" stroke-opacity="0.27" stroke-width="2.22222"/>
<line y1="-1.11111" x2="71.3864" y2="-1.11111" transform="matrix(0.996395 -0.0848303 0.343031 0.939324 11.5967 957.272)" stroke="#D8B38F" stroke-opacity="0.27" stroke-width="2.22222"/>
<line y1="-1.11111" x2="64.9347" y2="-1.11111" transform="matrix(-0.963272 -0.268528 0.767101 -0.641527 743.836 962.722)" stroke="#D8B38F" stroke-opacity="0.27" stroke-width="2.22222"/>
<line y1="-1.11111" x2="59.6971" y2="-1.11111" transform="matrix(-0.926822 -0.375501 0.866748 -0.498747 900.921 965.992)" stroke="#D8B38F" stroke-opacity="0.27" stroke-width="2.22222"/>
<line y1="-1.11111" x2="53.5636" y2="-1.11111" transform="matrix(-0.866748 -0.498746 0.926822 -0.3755 1056.76 968.171)" stroke="#D8B38F" stroke-opacity="0.27" stroke-width="2.22222"/>
<line y1="-1.11111" x2="47.0774" y2="-1.11111" transform="matrix(-0.767102 -0.641525 0.963272 -0.268527 1211.53 969.262)" stroke="#D8B38F" stroke-opacity="0.27" stroke-width="2.22222"/>
<line y1="-1.11111" x2="41.0382" y2="-1.11111" transform="matrix(-0.601951 -0.798533 0.984907 -0.173085 1365.49 970.35)" stroke="#D8B38F" stroke-opacity="0.27" stroke-width="2.22222"/>
<line y1="-1.11111" x2="36.5621" y2="-1.11111" transform="matrix(-0.343032 -0.939324 0.996395 -0.08483 1518.88 971.441)" stroke="#D8B38F" stroke-opacity="0.27" stroke-width="2.22222"/>
<line x1="1670.87" y1="971.441" x2="1670.87" y2="936.567" stroke="#D8B38F" stroke-opacity="0.27" stroke-width="2.22222"/>
<line x1="263.566" y1="955.113" x2="191.34" y2="955.113" stroke="#D8B38F" stroke-opacity="0.27" stroke-width="2.22222"/>
<line y1="-1.11111" x2="71.3864" y2="-1.11111" transform="matrix(-0.996395 -0.0848303 0.343031 -0.939324 425.25 957.272)" stroke="#D8B38F" stroke-opacity="0.27" stroke-width="2.22222"/>
<line y1="-1.11111" x2="68.9107" y2="-1.11111" transform="matrix(-0.984907 -0.173086 0.601949 -0.798535 585.324 960.542)" stroke="#D8B38F" stroke-opacity="0.27" stroke-width="2.22222"/>
<line y1="-1.11111" x2="64.9347" y2="-1.11111" transform="matrix(-0.963272 -0.268527 0.767103 -0.641524 581.315 1023.75)" stroke="#D8B38F" stroke-opacity="0.27" stroke-width="2.22222"/>
<line y1="-1.11111" x2="59.6971" y2="-1.11111" transform="matrix(-0.926823 -0.3755 0.866748 -0.498746 738.422 1027.02)" stroke="#D8B38F" stroke-opacity="0.27" stroke-width="2.22222"/>
<line y1="-1.11111" x2="53.5636" y2="-1.11111" transform="matrix(-0.866748 -0.498746 0.926822 -0.3755 894.262 1029.2)" stroke="#D8B38F" stroke-opacity="0.27" stroke-width="2.22222"/>
<line y1="-1.11111" x2="47.0774" y2="-1.11111" transform="matrix(-0.767102 -0.641525 0.963272 -0.268527 1049.04 1030.29)" stroke="#D8B38F" stroke-opacity="0.27" stroke-width="2.22222"/>
<line y1="-1.11111" x2="41.0381" y2="-1.11111" transform="matrix(-0.601949 -0.798535 0.984907 -0.173086 1202.97 1031.38)" stroke="#D8B38F" stroke-opacity="0.27" stroke-width="2.22222"/>
<line y1="-1.11111" x2="36.5622" y2="-1.11111" transform="matrix(-0.343031 -0.939324 0.996395 -0.0848303 1356.36 1032.47)" stroke="#D8B38F" stroke-opacity="0.27" stroke-width="2.22222"/>
<line x1="1508.35" y1="1032.47" x2="1508.35" y2="997.594" stroke="#D8B38F" stroke-opacity="0.27" stroke-width="2.22222"/>
<line y1="-1.11111" x2="36.5622" y2="-1.11111" transform="matrix(0.343031 -0.939324 0.996395 0.0848303 1662.58 1032.47)" stroke="#D8B38F" stroke-opacity="0.27" stroke-width="2.22222"/>
<line x1="101.046" y1="1016.14" x2="28.8196" y2="1016.14" stroke="#D8B38F" stroke-opacity="0.27" stroke-width="2.22222"/>
<line y1="-1.11111" x2="71.3864" y2="-1.11111" transform="matrix(-0.996395 -0.0848303 0.343031 -0.939324 262.729 1018.3)" stroke="#D8B38F" stroke-opacity="0.27" stroke-width="2.22222"/>
<line y1="-1.11111" x2="68.9106" y2="-1.11111" transform="matrix(-0.984907 -0.173086 0.601949 -0.798535 422.803 1021.57)" stroke="#D8B38F" stroke-opacity="0.27" stroke-width="2.22222"/>
<line y1="-1.11111" x2="41.0381" y2="-1.11111" transform="matrix(0.601949 -0.798535 0.984907 0.173086 1653.46 1092.41)" stroke="#D8B38F" stroke-opacity="0.27" stroke-width="2.22222"/>
<line y1="-1.11111" x2="64.9348" y2="-1.11111" transform="matrix(-0.963272 -0.268528 0.767101 -0.641526 418.816 1084.78)" stroke="#D8B38F" stroke-opacity="0.27" stroke-width="2.22222"/>
<line y1="-1.11111" x2="59.6971" y2="-1.11111" transform="matrix(-0.926822 -0.375501 0.866747 -0.498747 575.901 1088.05)" stroke="#D8B38F" stroke-opacity="0.27" stroke-width="2.22222"/>
<line y1="-1.11111" x2="53.5636" y2="-1.11111" transform="matrix(-0.866748 -0.498746 0.926822 -0.3755 731.74 1090.23)" stroke="#D8B38F" stroke-opacity="0.27" stroke-width="2.22222"/>
<line y1="-1.11111" x2="47.0773" y2="-1.11111" transform="matrix(-0.767103 -0.641524 0.963272 -0.268527 886.515 1091.32)" stroke="#D8B38F" stroke-opacity="0.27" stroke-width="2.22222"/>
<line y1="-1.11111" x2="41.0381" y2="-1.11111" transform="matrix(-0.601949 -0.798535 0.984907 -0.173086 1040.47 1092.41)" stroke="#D8B38F" stroke-opacity="0.27" stroke-width="2.22222"/>
<line y1="-1.11111" x2="36.5621" y2="-1.11111" transform="matrix(-0.343032 -0.939324 0.996395 -0.08483 1193.87 1093.5)" stroke="#D8B38F" stroke-opacity="0.27" stroke-width="2.22222"/>
<line x1="1345.85" y1="1093.5" x2="1345.85" y2="1058.62" stroke="#D8B38F" stroke-opacity="0.27" stroke-width="2.22222"/>
<line y1="-1.11111" x2="36.5621" y2="-1.11111" transform="matrix(0.343029 -0.939325 0.996395 0.084831 1500.06 1093.5)" stroke="#D8B38F" stroke-opacity="0.27" stroke-width="2.22222"/>
<line y1="-1.11111" x2="71.3864" y2="-1.11111" transform="matrix(-0.996395 -0.0848303 0.343031 -0.939324 100.23 1079.33)" stroke="#D8B38F" stroke-opacity="0.27" stroke-width="2.22222"/>
<line y1="-1.11111" x2="68.9106" y2="-1.11111" transform="matrix(-0.984907 -0.173086 0.601949 -0.798535 260.305 1082.6)" stroke="#D8B38F" stroke-opacity="0.27" stroke-width="2.22222"/>
<line y1="-1.11111" x2="41.0381" y2="-1.11111" transform="matrix(0.601949 -0.798535 0.984907 0.173086 1490.96 1153.44)" stroke="#D8B38F" stroke-opacity="0.27" stroke-width="2.22222"/>
<line y1="-1.11111" x2="47.0775" y2="-1.11111" transform="matrix(0.767102 -0.641525 0.963272 0.268527 1644.89 1152.35)" stroke="#D8B38F" stroke-opacity="0.27" stroke-width="2.22222"/>
<line y1="-1.11111" x2="64.9347" y2="-1.11111" transform="matrix(-0.963272 -0.268527 0.767103 -0.641524 256.296 1145.81)" stroke="#D8B38F" stroke-opacity="0.27" stroke-width="2.22222"/>
<line y1="-1.11111" x2="59.6971" y2="-1.11111" transform="matrix(-0.926822 -0.3755 0.866748 -0.498746 413.403 1149.08)" stroke="#D8B38F" stroke-opacity="0.27" stroke-width="2.22222"/>
<line y1="-1.11111" x2="53.5636" y2="-1.11111" transform="matrix(-0.866748 -0.498746 0.926822 -0.3755 569.242 1151.26)" stroke="#D8B38F" stroke-opacity="0.27" stroke-width="2.22222"/>
<line y1="-1.11111" x2="47.0774" y2="-1.11111" transform="matrix(-0.767102 -0.641525 0.963272 -0.268527 724.016 1152.35)" stroke="#D8B38F" stroke-opacity="0.27" stroke-width="2.22222"/>
<line y1="-1.11111" x2="41.0381" y2="-1.11111" transform="matrix(-0.601949 -0.798535 0.984907 -0.173086 877.953 1153.44)" stroke="#D8B38F" stroke-opacity="0.27" stroke-width="2.22222"/>
<line y1="-1.11111" x2="36.5621" y2="-1.11111" transform="matrix(-0.343032 -0.939324 0.996395 -0.08483 1031.35 1154.53)" stroke="#D8B38F" stroke-opacity="0.27" stroke-width="2.22222"/>
<line x1="1183.33" y1="1154.53" x2="1183.33" y2="1119.65" stroke="#D8B38F" stroke-opacity="0.27" stroke-width="2.22222"/>
<line y1="-1.11111" x2="36.5621" y2="-1.11111" transform="matrix(0.343029 -0.939325 0.996395 0.084831 1337.56 1154.53)" stroke="#D8B38F" stroke-opacity="0.27" stroke-width="2.22222"/>
<line y1="-1.11111" x2="68.9106" y2="-1.11111" transform="matrix(-0.984907 -0.173087 0.601946 -0.798537 97.7842 1143.63)" stroke="#D8B38F" stroke-opacity="0.27" stroke-width="2.22222"/>
<line y1="-1.11111" x2="41.0383" y2="-1.11111" transform="matrix(0.60195 -0.798534 0.984907 0.173085 1328.44 1214.47)" stroke="#D8B38F" stroke-opacity="0.27" stroke-width="2.22222"/>
<line y1="-1.11111" x2="47.0775" y2="-1.11111" transform="matrix(0.767102 -0.641525 0.963272 0.268527 1482.39 1213.38)" stroke="#D8B38F" stroke-opacity="0.27" stroke-width="2.22222"/>
<line y1="-1.11111" x2="53.5636" y2="-1.11111" transform="matrix(0.866748 -0.498746 0.926822 0.3755 1637.17 1212.28)" stroke="#D8B38F" stroke-opacity="0.27" stroke-width="2.22222"/>
<line y1="-1.11111" x2="64.9348" y2="-1.11111" transform="matrix(-0.963272 -0.268528 0.767101 -0.641526 93.7974 1206.84)" stroke="#D8B38F" stroke-opacity="0.27" stroke-width="2.22222"/>
<line y1="-1.11111" x2="59.697" y2="-1.11111" transform="matrix(-0.926822 -0.3755 0.866748 -0.498746 250.882 1210.11)" stroke="#D8B38F" stroke-opacity="0.27" stroke-width="2.22222"/>
<line y1="-1.11111" x2="53.5636" y2="-1.11111" transform="matrix(-0.866748 -0.498746 0.926822 -0.3755 406.721 1212.28)" stroke="#D8B38F" stroke-opacity="0.27" stroke-width="2.22222"/>
<line y1="-1.11111" x2="47.0774" y2="-1.11111" transform="matrix(-0.767102 -0.641525 0.963272 -0.268527 561.496 1213.38)" stroke="#D8B38F" stroke-opacity="0.27" stroke-width="2.22222"/>
<line y1="-1.11111" x2="41.0382" y2="-1.11111" transform="matrix(-0.601948 -0.798536 0.984907 -0.173086 715.454 1214.47)" stroke="#D8B38F" stroke-opacity="0.27" stroke-width="2.22222"/>
<line y1="-1.11111" x2="36.5621" y2="-1.11111" transform="matrix(-0.343032 -0.939324 0.996395 -0.08483 868.847 1215.55)" stroke="#D8B38F" stroke-opacity="0.27" stroke-width="2.22222"/>
<line x1="1020.83" y1="1215.55" x2="1020.83" y2="1180.68" stroke="#D8B38F" stroke-opacity="0.27" stroke-width="2.22222"/>
<line y1="-1.11111" x2="36.5621" y2="-1.11111" transform="matrix(0.343032 -0.939324 0.996395 0.08483 1175.04 1215.55)" stroke="#D8B38F" stroke-opacity="0.27" stroke-width="2.22222"/>
<line y1="-1.11111" x2="41.0381" y2="-1.11111" transform="matrix(0.601949 -0.798535 0.984907 0.173086 1165.94 1275.49)" stroke="#D8B38F" stroke-opacity="0.27" stroke-width="2.22222"/>
<line y1="-1.11111" x2="47.0773" y2="-1.11111" transform="matrix(0.767101 -0.641526 0.963272 0.268528 1319.87 1274.4)" stroke="#D8B38F" stroke-opacity="0.27" stroke-width="2.22222"/>
<line y1="-1.11111" x2="53.5636" y2="-1.11111" transform="matrix(0.866748 -0.498746 0.926822 0.3755 1474.65 1273.31)" stroke="#D8B38F" stroke-opacity="0.27" stroke-width="2.22222"/>
<line y1="-1.11111" x2="59.6971" y2="-1.11111" transform="matrix(0.926823 -0.3755 0.866748 0.498746 1630.49 1271.13)" stroke="#D8B38F" stroke-opacity="0.27" stroke-width="2.22222"/>
<line y1="-1.11111" x2="59.6971" y2="-1.11111" transform="matrix(-0.926822 -0.3755 0.866748 -0.498746 88.3838 1271.13)" stroke="#D8B38F" stroke-opacity="0.27" stroke-width="2.22222"/>
<line y1="-1.11111" x2="53.5636" y2="-1.11111" transform="matrix(-0.866748 -0.498746 0.926822 -0.3755 244.223 1273.31)" stroke="#D8B38F" stroke-opacity="0.27" stroke-width="2.22222"/>
<line y1="-1.11111" x2="47.0774" y2="-1.11111" transform="matrix(-0.767102 -0.641525 0.963272 -0.268527 398.997 1274.4)" stroke="#D8B38F" stroke-opacity="0.27" stroke-width="2.22222"/>
<line y1="-1.11111" x2="41.0381" y2="-1.11111" transform="matrix(-0.601949 -0.798534 0.984907 -0.173085 552.934 1275.49)" stroke="#D8B38F" stroke-opacity="0.27" stroke-width="2.22222"/>
<line y1="-1.11111" x2="36.5621" y2="-1.11111" transform="matrix(-0.343032 -0.939324 0.996395 -0.08483 706.326 1276.58)" stroke="#D8B38F" stroke-opacity="0.27" stroke-width="2.22222"/>
<line x1="858.314" y1="1276.58" x2="858.314" y2="1241.71" stroke="#D8B38F" stroke-opacity="0.27" stroke-width="2.22222"/>
<line y1="-1.11111" x2="36.5621" y2="-1.11111" transform="matrix(0.34303 -0.939324 0.996395 0.0848305 1012.54 1276.58)" stroke="#D8B38F" stroke-opacity="0.27" stroke-width="2.22222"/>
</svg>
