<svg width="28" height="37" viewBox="0 0 28 37" fill="none" xmlns="http://www.w3.org/2000/svg">
<path d="M13.8469 0C10.1759 0.00486976 6.65678 1.4653 4.06104 4.06104C1.46529 6.65678 0.00486976 10.1759 0 13.8469C0 23.7878 12.9007 36.2384 13.4488 36.7634C13.5554 36.867 13.6982 36.925 13.8469 36.925C13.9955 36.925 14.1384 36.867 14.245 36.7634C14.7931 36.2384 27.6938 23.7878 27.6938 13.8469C27.6888 10.1759 26.2285 6.65678 23.6327 4.06104C21.0371 1.4653 17.5178 0.00486976 13.8469 0ZM13.8469 20.1933C12.5916 20.1933 11.3646 19.8211 10.321 19.1238C9.27728 18.4264 8.46384 17.4352 7.98349 16.2756C7.50314 15.1159 7.37745 13.8398 7.62232 12.6087C7.86722 11.3776 8.47166 10.2468 9.35923 9.35923C10.2468 8.47166 11.3776 7.86722 12.6087 7.62232C13.8398 7.37745 15.1159 7.50314 16.2756 7.98349C17.4352 8.46382 18.4264 9.27728 19.1238 10.321C19.8211 11.3646 20.1934 12.5916 20.1934 13.8469C20.1923 15.5298 19.5234 17.1434 18.3334 18.3334C17.1434 19.5234 15.5298 20.1923 13.8469 20.1933Z" fill="#D8B38F"/>
</svg>
