<svg width="73" height="73" viewBox="0 0 73 73" fill="none" xmlns="http://www.w3.org/2000/svg">
<path d="M64.2383 1.5H71.4997V8.76141" stroke="white" stroke-width="3" stroke-miterlimit="10" stroke-linecap="round" stroke-linejoin="round"/>
<path d="M71.5004 1.5L56.9775 16.0228" stroke="white" stroke-width="3" stroke-miterlimit="10" stroke-linecap="round" stroke-linejoin="round"/>
<path d="M8.76141 1.5H1.5V8.76141" stroke="white" stroke-width="3" stroke-miterlimit="10" stroke-linecap="round" stroke-linejoin="round"/>
<path d="M1.5 1.5L16.0228 16.0228" stroke="white" stroke-width="3" stroke-miterlimit="10" stroke-linecap="round" stroke-linejoin="round"/>
<path d="M64.2383 71.4999H71.4997V64.2385" stroke="white" stroke-width="3" stroke-miterlimit="10" stroke-linecap="round" stroke-linejoin="round"/>
<path d="M71.5004 71.5001L56.9775 56.9773" stroke="white" stroke-width="3" stroke-miterlimit="10" stroke-linecap="round" stroke-linejoin="round"/>
<path d="M8.76141 71.4999H1.5V64.2385" stroke="white" stroke-width="3" stroke-miterlimit="10" stroke-linecap="round" stroke-linejoin="round"/>
<path d="M1.5 71.5001L16.0228 56.9773" stroke="white" stroke-width="3" stroke-miterlimit="10" stroke-linecap="round" stroke-linejoin="round"/>
<path d="M36.4996 64.0934L22.5988 44.6322C14.5227 33.3258 22.6049 17.6204 36.4996 17.6204C50.3942 17.6204 58.4766 33.3258 50.4004 44.6322L36.4996 64.0934Z" stroke="white" stroke-width="3" stroke-miterlimit="10" stroke-linecap="round" stroke-linejoin="round"/>
<path d="M36.4997 41.9947C40.5101 41.9947 43.7611 38.7437 43.7611 34.7333C43.7611 30.723 40.5101 27.4719 36.4997 27.4719C32.4893 27.4719 29.2383 30.723 29.2383 34.7333C29.2383 38.7437 32.4893 41.9947 36.4997 41.9947Z" stroke="white" stroke-width="3" stroke-miterlimit="10" stroke-linecap="round" stroke-linejoin="round"/>
</svg>
