<svg width="1728" height="895" viewBox="0 0 1728 895" fill="none" xmlns="http://www.w3.org/2000/svg">
<path d="M0 0H1728V895L0 676.527V0Z" fill="#D8B38F" fill-opacity="0.08"/>
<line y1="-1.11111" x2="35.2796" y2="-1.11111" transform="matrix(0.700203 -0.713944 0.991001 0.133858 1183.97 28.1182)" stroke="#D8B38F" stroke-opacity="0.27" stroke-width="2.22222"/>
<line y1="-1.11111" x2="42.9302" y2="-1.11111" transform="matrix(0.841204 -0.540717 0.977807 0.209508 1337.93 27.2822)" stroke="#D8B38F" stroke-opacity="0.27" stroke-width="2.22222"/>
<line y1="-1.11111" x2="50.7643" y2="-1.11111" transform="matrix(0.914546 -0.404481 0.954778 0.297318 1492.7 26.4434)" stroke="#D8B38F" stroke-opacity="0.27" stroke-width="2.22222"/>
<line y1="-1.11111" x2="57.9492" y2="-1.11111" transform="matrix(0.954778 -0.297319 0.914546 0.404481 1648.52 24.7686)" stroke="#D8B38F" stroke-opacity="0.27" stroke-width="2.22222"/>
<line y1="-1.11111" x2="57.9491" y2="-1.11111" transform="matrix(-0.954778 -0.297319 0.914546 -0.404482 106.414 24.7686)" stroke="#D8B38F" stroke-opacity="0.27" stroke-width="2.22222"/>
<line y1="-1.11111" x2="50.7642" y2="-1.11111" transform="matrix(-0.914546 -0.404482 0.954778 -0.297319 262.254 26.4434)" stroke="#D8B38F" stroke-opacity="0.27" stroke-width="2.22222"/>
<line y1="-1.11111" x2="42.9303" y2="-1.11111" transform="matrix(-0.841205 -0.540716 0.977807 -0.209507 417.027 27.2822)" stroke="#D8B38F" stroke-opacity="0.27" stroke-width="2.22222"/>
<line y1="-1.11111" x2="35.2796" y2="-1.11111" transform="matrix(-0.700202 -0.713945 0.991 -0.133859 570.986 28.1182)" stroke="#D8B38F" stroke-opacity="0.27" stroke-width="2.22222"/>
<line y1="-1.11111" x2="29.225" y2="-1.11111" transform="matrix(-0.429153 -0.903232 0.997866 -0.0652976 724.378 28.957)" stroke="#D8B38F" stroke-opacity="0.27" stroke-width="2.22222"/>
<line x1="876.365" y1="28.957" x2="876.365" y2="2.15287" stroke="#D8B38F" stroke-opacity="0.27" stroke-width="2.22222"/>
<line y1="-1.11111" x2="29.225" y2="-1.11111" transform="matrix(0.429153 -0.903232 0.997866 0.0652976 1030.58 28.957)" stroke="#D8B38F" stroke-opacity="0.27" stroke-width="2.22222"/>
<line y1="-1.11111" x2="35.2796" y2="-1.11111" transform="matrix(0.700202 -0.713945 0.991 0.133859 1021.47 75.0264)" stroke="#D8B38F" stroke-opacity="0.27" stroke-width="2.22222"/>
<line y1="-1.11111" x2="42.9303" y2="-1.11111" transform="matrix(0.841205 -0.540716 0.977807 0.209507 1175.41 74.1885)" stroke="#D8B38F" stroke-opacity="0.27" stroke-width="2.22222"/>
<line y1="-1.11111" x2="50.7642" y2="-1.11111" transform="matrix(0.914546 -0.404482 0.954778 0.297319 1330.18 73.3516)" stroke="#D8B38F" stroke-opacity="0.27" stroke-width="2.22222"/>
<line y1="-1.11111" x2="57.9492" y2="-1.11111" transform="matrix(0.954778 -0.297319 0.914546 0.404481 1486.02 71.6768)" stroke="#D8B38F" stroke-opacity="0.27" stroke-width="2.22222"/>
<line y1="-1.11111" x2="63.9695" y2="-1.11111" transform="matrix(0.977807 -0.209507 0.841205 0.540716 1643.1 69.1631)" stroke="#D8B38F" stroke-opacity="0.27" stroke-width="2.22222"/>
<line y1="-1.11111" x2="50.7642" y2="-1.11111" transform="matrix(-0.914546 -0.404482 0.954778 -0.297319 99.7549 73.3516)" stroke="#D8B38F" stroke-opacity="0.27" stroke-width="2.22222"/>
<line y1="-1.11111" x2="42.9303" y2="-1.11111" transform="matrix(-0.841205 -0.540716 0.977807 -0.209507 254.529 74.1885)" stroke="#D8B38F" stroke-opacity="0.27" stroke-width="2.22222"/>
<line y1="-1.11111" x2="35.2796" y2="-1.11111" transform="matrix(-0.700202 -0.713944 0.991 -0.133859 408.465 75.0264)" stroke="#D8B38F" stroke-opacity="0.27" stroke-width="2.22222"/>
<line y1="-1.11111" x2="29.225" y2="-1.11111" transform="matrix(-0.429152 -0.903232 0.997866 -0.0652978 561.858 75.8633)" stroke="#D8B38F" stroke-opacity="0.27" stroke-width="2.22222"/>
<line x1="713.845" y1="75.8633" x2="713.845" y2="49.0591" stroke="#D8B38F" stroke-opacity="0.27" stroke-width="2.22222"/>
<line y1="-1.11111" x2="29.225" y2="-1.11111" transform="matrix(0.429153 -0.903232 0.997866 0.0652976 868.077 75.8633)" stroke="#D8B38F" stroke-opacity="0.27" stroke-width="2.22222"/>
<line y1="-1.11111" x2="35.2796" y2="-1.11111" transform="matrix(0.700202 -0.713945 0.991 0.133859 858.948 121.935)" stroke="#D8B38F" stroke-opacity="0.27" stroke-width="2.22222"/>
<line y1="-1.11111" x2="42.9303" y2="-1.11111" transform="matrix(0.841205 -0.540716 0.977807 0.209507 1012.91 121.096)" stroke="#D8B38F" stroke-opacity="0.27" stroke-width="2.22222"/>
<line y1="-1.11111" x2="50.7642" y2="-1.11111" transform="matrix(0.914546 -0.404482 0.954778 0.297319 1167.68 120.258)" stroke="#D8B38F" stroke-opacity="0.27" stroke-width="2.22222"/>
<line y1="-1.11111" x2="57.949" y2="-1.11111" transform="matrix(0.954778 -0.29732 0.914546 0.404482 1323.52 118.583)" stroke="#D8B38F" stroke-opacity="0.27" stroke-width="2.22222"/>
<line y1="-1.11111" x2="63.9694" y2="-1.11111" transform="matrix(0.977807 -0.209508 0.841205 0.540717 1480.61 116.069)" stroke="#D8B38F" stroke-opacity="0.27" stroke-width="2.22222"/>
<line y1="-1.11111" x2="68.487" y2="-1.11111" transform="matrix(0.991 -0.133859 0.700202 0.713944 1639.12 114.395)" stroke="#D8B38F" stroke-opacity="0.27" stroke-width="2.22222"/>
<line y1="-1.11111" x2="42.9303" y2="-1.11111" transform="matrix(-0.841205 -0.540716 0.977807 -0.209507 92.0078 121.096)" stroke="#D8B38F" stroke-opacity="0.27" stroke-width="2.22222"/>
<line y1="-1.11111" x2="35.2796" y2="-1.11111" transform="matrix(-0.700202 -0.713945 0.991 -0.133859 245.967 121.935)" stroke="#D8B38F" stroke-opacity="0.27" stroke-width="2.22222"/>
<line y1="-1.11111" x2="29.225" y2="-1.11111" transform="matrix(-0.429153 -0.903232 0.997866 -0.0652976 399.359 122.771)" stroke="#D8B38F" stroke-opacity="0.27" stroke-width="2.22222"/>
<line x1="551.346" y1="122.771" x2="551.346" y2="95.9673" stroke="#D8B38F" stroke-opacity="0.27" stroke-width="2.22222"/>
<line y1="-1.11111" x2="29.225" y2="-1.11111" transform="matrix(0.429153 -0.903232 0.997866 0.0652976 705.556 122.771)" stroke="#D8B38F" stroke-opacity="0.27" stroke-width="2.22222"/>
<line y1="-1.11111" x2="35.2796" y2="-1.11111" transform="matrix(0.700202 -0.713945 0.991 0.133859 696.449 168.841)" stroke="#D8B38F" stroke-opacity="0.27" stroke-width="2.22222"/>
<line y1="-1.11111" x2="42.9303" y2="-1.11111" transform="matrix(0.841205 -0.540716 0.977807 0.209507 850.387 168.004)" stroke="#D8B38F" stroke-opacity="0.27" stroke-width="2.22222"/>
<line y1="-1.11111" x2="50.7642" y2="-1.11111" transform="matrix(0.914546 -0.404482 0.954778 0.297319 1005.16 167.166)" stroke="#D8B38F" stroke-opacity="0.27" stroke-width="2.22222"/>
<line y1="-1.11111" x2="57.9491" y2="-1.11111" transform="matrix(0.954778 -0.297319 0.914546 0.404482 1161 165.49)" stroke="#D8B38F" stroke-opacity="0.27" stroke-width="2.22222"/>
<line y1="-1.11111" x2="63.9695" y2="-1.11111" transform="matrix(0.977807 -0.209507 0.841205 0.540716 1318.11 162.978)" stroke="#D8B38F" stroke-opacity="0.27" stroke-width="2.22222"/>
<line y1="-1.11111" x2="68.4868" y2="-1.11111" transform="matrix(0.991 -0.133859 0.700202 0.713945 1476.62 161.303)" stroke="#D8B38F" stroke-opacity="0.27" stroke-width="2.22222"/>
<line y1="-1.11111" x2="71.2811" y2="-1.11111" transform="matrix(0.997866 -0.0652977 0.429152 0.903232 1636.69 158.789)" stroke="#D8B38F" stroke-opacity="0.27" stroke-width="2.22222"/>
<line y1="-1.11111" x2="35.2796" y2="-1.11111" transform="matrix(-0.700202 -0.713944 0.991 -0.133859 83.4463 168.841)" stroke="#D8B38F" stroke-opacity="0.27" stroke-width="2.22222"/>
<line y1="-1.11111" x2="29.225" y2="-1.11111" transform="matrix(-0.429152 -0.903232 0.997866 -0.0652978 236.838 169.68)" stroke="#D8B38F" stroke-opacity="0.27" stroke-width="2.22222"/>
<line x1="388.825" y1="169.68" x2="388.825" y2="142.876" stroke="#D8B38F" stroke-opacity="0.27" stroke-width="2.22222"/>
<line y1="-1.11111" x2="29.225" y2="-1.11111" transform="matrix(0.429152 -0.903232 0.997866 0.0652978 543.058 169.68)" stroke="#D8B38F" stroke-opacity="0.27" stroke-width="2.22222"/>
<line y1="-1.11111" x2="35.2796" y2="-1.11111" transform="matrix(0.700202 -0.713945 0.991 0.133859 533.929 215.749)" stroke="#D8B38F" stroke-opacity="0.27" stroke-width="2.22222"/>
<line y1="-1.11111" x2="42.9303" y2="-1.11111" transform="matrix(0.841205 -0.540716 0.977807 0.209507 687.888 214.91)" stroke="#D8B38F" stroke-opacity="0.27" stroke-width="2.22222"/>
<line y1="-1.11111" x2="50.7642" y2="-1.11111" transform="matrix(0.914546 -0.404481 0.954778 0.297319 842.662 214.074)" stroke="#D8B38F" stroke-opacity="0.27" stroke-width="2.22222"/>
<line y1="-1.11111" x2="57.9492" y2="-1.11111" transform="matrix(0.954778 -0.297319 0.914546 0.404482 998.5 212.396)" stroke="#D8B38F" stroke-opacity="0.27" stroke-width="2.22222"/>
<line y1="-1.11111" x2="63.9695" y2="-1.11111" transform="matrix(0.977807 -0.209507 0.841205 0.540716 1155.59 209.886)" stroke="#D8B38F" stroke-opacity="0.27" stroke-width="2.22222"/>
<line y1="-1.11111" x2="68.487" y2="-1.11111" transform="matrix(0.991 -0.133859 0.700203 0.713944 1314.1 208.209)" stroke="#D8B38F" stroke-opacity="0.27" stroke-width="2.22222"/>
<line y1="-1.11111" x2="71.2813" y2="-1.11111" transform="matrix(0.997866 -0.0652976 0.429153 0.903232 1474.17 205.697)" stroke="#D8B38F" stroke-opacity="0.27" stroke-width="2.22222"/>
<line y1="-1.11111" x2="29.225" y2="-1.11111" transform="matrix(-0.429152 -0.903232 0.997866 -0.0652977 74.3403 216.585)" stroke="#D8B38F" stroke-opacity="0.27" stroke-width="2.22222"/>
<line x1="226.327" y1="216.585" x2="226.327" y2="189.781" stroke="#D8B38F" stroke-opacity="0.27" stroke-width="2.22222"/>
<line y1="-1.11111" x2="29.225" y2="-1.11111" transform="matrix(0.429152 -0.903232 0.997866 0.0652978 380.537 216.585)" stroke="#D8B38F" stroke-opacity="0.27" stroke-width="2.22222"/>
<line x1="1726.14" y1="204.295" x2="1653.92" y2="204.295" stroke="#D8B38F" stroke-opacity="0.27" stroke-width="2.22222"/>
<line y1="-1.11111" x2="35.2796" y2="-1.11111" transform="matrix(0.700202 -0.713944 0.991 0.133859 371.431 262.654)" stroke="#D8B38F" stroke-opacity="0.27" stroke-width="2.22222"/>
<line y1="-1.11111" x2="42.9303" y2="-1.11111" transform="matrix(0.841205 -0.540716 0.977807 0.209507 525.367 261.818)" stroke="#D8B38F" stroke-opacity="0.27" stroke-width="2.22222"/>
<line y1="-1.11111" x2="50.7642" y2="-1.11111" transform="matrix(0.914546 -0.404481 0.954778 0.297319 680.141 260.979)" stroke="#D8B38F" stroke-opacity="0.27" stroke-width="2.22222"/>
<line y1="-1.11111" x2="57.9492" y2="-1.11111" transform="matrix(0.954778 -0.297319 0.914546 0.404482 835.98 259.305)" stroke="#D8B38F" stroke-opacity="0.27" stroke-width="2.22222"/>
<line y1="-1.11111" x2="63.9695" y2="-1.11111" transform="matrix(0.977807 -0.209508 0.841205 0.540717 993.088 256.791)" stroke="#D8B38F" stroke-opacity="0.27" stroke-width="2.22222"/>
<line y1="-1.11111" x2="68.4869" y2="-1.11111" transform="matrix(0.991 -0.133859 0.700202 0.713945 1151.6 255.116)" stroke="#D8B38F" stroke-opacity="0.27" stroke-width="2.22222"/>
<line y1="-1.11111" x2="71.2811" y2="-1.11111" transform="matrix(0.997866 -0.0652977 0.429152 0.903232 1311.67 252.604)" stroke="#D8B38F" stroke-opacity="0.27" stroke-width="2.22222"/>
<line x1="63.8069" y1="263.493" x2="63.8069" y2="236.689" stroke="#D8B38F" stroke-opacity="0.27" stroke-width="2.22222"/>
<line y1="-1.11111" x2="29.225" y2="-1.11111" transform="matrix(0.429152 -0.903232 0.997866 0.0652977 218.038 263.493)" stroke="#D8B38F" stroke-opacity="0.27" stroke-width="2.22222"/>
<line x1="1563.62" y1="251.203" x2="1491.39" y2="251.203" stroke="#D8B38F" stroke-opacity="0.27" stroke-width="2.22222"/>
<line y1="-1.11111" x2="71.2813" y2="-1.11111" transform="matrix(-0.997866 -0.0652976 0.429153 -0.903232 1725.33 252.604)" stroke="#D8B38F" stroke-opacity="0.27" stroke-width="2.22222"/>
<line y1="-1.11111" x2="35.2796" y2="-1.11111" transform="matrix(0.700202 -0.713944 0.991 0.133859 208.91 309.562)" stroke="#D8B38F" stroke-opacity="0.27" stroke-width="2.22222"/>
<line y1="-1.11111" x2="42.9303" y2="-1.11111" transform="matrix(0.841205 -0.540717 0.977807 0.209508 362.869 308.725)" stroke="#D8B38F" stroke-opacity="0.27" stroke-width="2.22222"/>
<line y1="-1.11111" x2="50.7642" y2="-1.11111" transform="matrix(0.914546 -0.404482 0.954778 0.297319 517.643 307.888)" stroke="#D8B38F" stroke-opacity="0.27" stroke-width="2.22222"/>
<line y1="-1.11111" x2="57.9492" y2="-1.11111" transform="matrix(0.954778 -0.297319 0.914546 0.404482 673.482 306.213)" stroke="#D8B38F" stroke-opacity="0.27" stroke-width="2.22222"/>
<line y1="-1.11111" x2="63.9695" y2="-1.11111" transform="matrix(0.977807 -0.209508 0.841205 0.540717 830.566 303.7)" stroke="#D8B38F" stroke-opacity="0.27" stroke-width="2.22222"/>
<line y1="-1.11111" x2="68.4869" y2="-1.11111" transform="matrix(0.991 -0.133859 0.700202 0.713945 989.078 302.024)" stroke="#D8B38F" stroke-opacity="0.27" stroke-width="2.22222"/>
<line y1="-1.11111" x2="71.2812" y2="-1.11111" transform="matrix(0.997866 -0.0652977 0.429152 0.903232 1149.15 299.512)" stroke="#D8B38F" stroke-opacity="0.27" stroke-width="2.22222"/>
<line y1="-1.11111" x2="29.225" y2="-1.11111" transform="matrix(0.429152 -0.903232 0.997866 0.0652977 55.5176 310.401)" stroke="#D8B38F" stroke-opacity="0.27" stroke-width="2.22222"/>
<line x1="1401.12" y1="298.109" x2="1328.9" y2="298.109" stroke="#D8B38F" stroke-opacity="0.27" stroke-width="2.22222"/>
<line y1="-1.11111" x2="71.2811" y2="-1.11111" transform="matrix(-0.997866 -0.0652977 0.429152 -0.903232 1562.81 299.512)" stroke="#D8B38F" stroke-opacity="0.27" stroke-width="2.22222"/>
<line y1="-1.11111" x2="68.4868" y2="-1.11111" transform="matrix(-0.991 -0.133859 0.700202 -0.713945 1722.88 302.024)" stroke="#D8B38F" stroke-opacity="0.27" stroke-width="2.22222"/>
<line y1="-1.11111" x2="35.2796" y2="-1.11111" transform="matrix(0.700202 -0.713944 0.991 0.133859 46.4116 356.471)" stroke="#D8B38F" stroke-opacity="0.27" stroke-width="2.22222"/>
<line y1="-1.11111" x2="42.9303" y2="-1.11111" transform="matrix(0.841205 -0.540716 0.977807 0.209507 200.348 355.633)" stroke="#D8B38F" stroke-opacity="0.27" stroke-width="2.22222"/>
<line y1="-1.11111" x2="50.7642" y2="-1.11111" transform="matrix(0.914546 -0.404482 0.954778 0.297319 355.122 354.794)" stroke="#D8B38F" stroke-opacity="0.27" stroke-width="2.22222"/>
<line y1="-1.11111" x2="57.9491" y2="-1.11111" transform="matrix(0.954778 -0.297319 0.914546 0.404481 510.961 353.119)" stroke="#D8B38F" stroke-opacity="0.27" stroke-width="2.22222"/>
<line y1="-1.11111" x2="63.9695" y2="-1.11111" transform="matrix(0.977807 -0.209507 0.841205 0.540716 668.068 350.605)" stroke="#D8B38F" stroke-opacity="0.27" stroke-width="2.22222"/>
<line y1="-1.11111" x2="68.4869" y2="-1.11111" transform="matrix(0.991 -0.133859 0.700202 0.713945 826.58 348.931)" stroke="#D8B38F" stroke-opacity="0.27" stroke-width="2.22222"/>
<line y1="-1.11111" x2="71.2812" y2="-1.11111" transform="matrix(0.997866 -0.0652977 0.429152 0.903232 986.655 346.42)" stroke="#D8B38F" stroke-opacity="0.27" stroke-width="2.22222"/>
<line y1="-1.11111" x2="63.9694" y2="-1.11111" transform="matrix(-0.977807 -0.209508 0.841205 -0.540717 1718.89 350.605)" stroke="#D8B38F" stroke-opacity="0.27" stroke-width="2.22222"/>
<line x1="1238.62" y1="345.017" x2="1166.4" y2="345.017" stroke="#D8B38F" stroke-opacity="0.27" stroke-width="2.22222"/>
<line y1="-1.11111" x2="71.2811" y2="-1.11111" transform="matrix(-0.997866 -0.0652977 0.429152 -0.903232 1400.31 346.42)" stroke="#D8B38F" stroke-opacity="0.27" stroke-width="2.22222"/>
<line y1="-1.11111" x2="68.487" y2="-1.11111" transform="matrix(-0.991 -0.133859 0.700203 -0.713944 1560.36 348.931)" stroke="#D8B38F" stroke-opacity="0.27" stroke-width="2.22222"/>
<line y1="-1.11111" x2="42.9303" y2="-1.11111" transform="matrix(0.841205 -0.540716 0.977807 0.209507 37.8496 402.541)" stroke="#D8B38F" stroke-opacity="0.27" stroke-width="2.22222"/>
<line y1="-1.11111" x2="50.7642" y2="-1.11111" transform="matrix(0.914546 -0.404482 0.954778 0.297319 192.624 401.702)" stroke="#D8B38F" stroke-opacity="0.27" stroke-width="2.22222"/>
<line y1="-1.11111" x2="57.9491" y2="-1.11111" transform="matrix(0.954778 -0.297319 0.914546 0.404481 348.463 400.027)" stroke="#D8B38F" stroke-opacity="0.27" stroke-width="2.22222"/>
<line y1="-1.11111" x2="63.9695" y2="-1.11111" transform="matrix(0.977807 -0.209507 0.841205 0.540716 505.547 397.514)" stroke="#D8B38F" stroke-opacity="0.27" stroke-width="2.22222"/>
<line y1="-1.11111" x2="68.4869" y2="-1.11111" transform="matrix(0.991 -0.133859 0.700202 0.713945 664.059 395.839)" stroke="#D8B38F" stroke-opacity="0.27" stroke-width="2.22222"/>
<line y1="-1.11111" x2="71.2812" y2="-1.11111" transform="matrix(0.997866 -0.0652977 0.429152 0.903232 824.134 393.325)" stroke="#D8B38F" stroke-opacity="0.27" stroke-width="2.22222"/>
<line y1="-1.11111" x2="63.9695" y2="-1.11111" transform="matrix(-0.977807 -0.209507 0.841205 -0.540716 1556.37 397.514)" stroke="#D8B38F" stroke-opacity="0.27" stroke-width="2.22222"/>
<line y1="-1.11111" x2="57.9492" y2="-1.11111" transform="matrix(-0.954778 -0.297319 0.914546 -0.404481 1713.48 400.027)" stroke="#D8B38F" stroke-opacity="0.27" stroke-width="2.22222"/>
<line x1="1076.1" y1="391.923" x2="1003.88" y2="391.923" stroke="#D8B38F" stroke-opacity="0.27" stroke-width="2.22222"/>
<line y1="-1.11111" x2="71.2812" y2="-1.11111" transform="matrix(-0.997866 -0.0652977 0.429152 -0.903232 1237.79 393.325)" stroke="#D8B38F" stroke-opacity="0.27" stroke-width="2.22222"/>
<line y1="-1.11111" x2="68.487" y2="-1.11111" transform="matrix(-0.991 -0.133859 0.700203 -0.713944 1397.86 395.839)" stroke="#D8B38F" stroke-opacity="0.27" stroke-width="2.22222"/>
<line y1="-1.11111" x2="50.7642" y2="-1.11111" transform="matrix(0.914546 -0.404481 0.954778 0.297319 30.1025 448.61)" stroke="#D8B38F" stroke-opacity="0.27" stroke-width="2.22222"/>
<line y1="-1.11111" x2="57.9491" y2="-1.11111" transform="matrix(0.954778 -0.29732 0.914546 0.404482 185.942 446.934)" stroke="#D8B38F" stroke-opacity="0.27" stroke-width="2.22222"/>
<line y1="-1.11111" x2="63.9695" y2="-1.11111" transform="matrix(0.977807 -0.209507 0.841205 0.540716 343.049 444.422)" stroke="#D8B38F" stroke-opacity="0.27" stroke-width="2.22222"/>
<line y1="-1.11111" x2="68.4869" y2="-1.11111" transform="matrix(0.991 -0.133859 0.700202 0.713945 501.561 442.747)" stroke="#D8B38F" stroke-opacity="0.27" stroke-width="2.22222"/>
<line y1="-1.11111" x2="71.2811" y2="-1.11111" transform="matrix(0.997866 -0.0652977 0.429152 0.903232 661.635 440.233)" stroke="#D8B38F" stroke-opacity="0.27" stroke-width="2.22222"/>
<line y1="-1.11111" x2="63.9695" y2="-1.11111" transform="matrix(-0.977807 -0.209507 0.841205 -0.540716 1393.87 444.422)" stroke="#D8B38F" stroke-opacity="0.27" stroke-width="2.22222"/>
<line y1="-1.11111" x2="57.9492" y2="-1.11111" transform="matrix(-0.954778 -0.297319 0.914546 -0.404482 1550.96 446.934)" stroke="#D8B38F" stroke-opacity="0.27" stroke-width="2.22222"/>
<line y1="-1.11111" x2="50.7643" y2="-1.11111" transform="matrix(-0.914547 -0.40448 0.954778 -0.297318 1706.8 448.61)" stroke="#D8B38F" stroke-opacity="0.27" stroke-width="2.22222"/>
<line x1="913.605" y1="438.832" x2="841.379" y2="438.832" stroke="#D8B38F" stroke-opacity="0.27" stroke-width="2.22222"/>
<line y1="-1.11111" x2="71.2812" y2="-1.11111" transform="matrix(-0.997866 -0.0652977 0.429152 -0.903232 1075.29 440.233)" stroke="#D8B38F" stroke-opacity="0.27" stroke-width="2.22222"/>
<line y1="-1.11111" x2="68.4869" y2="-1.11111" transform="matrix(-0.991 -0.133859 0.700202 -0.713945 1235.36 442.747)" stroke="#D8B38F" stroke-opacity="0.27" stroke-width="2.22222"/>
<line y1="-1.11111" x2="57.9491" y2="-1.11111" transform="matrix(0.954778 -0.297319 0.914546 0.404481 23.4434 493.842)" stroke="#D8B38F" stroke-opacity="0.27" stroke-width="2.22222"/>
<line y1="-1.11111" x2="63.9695" y2="-1.11111" transform="matrix(0.977807 -0.209507 0.841205 0.540716 180.528 491.328)" stroke="#D8B38F" stroke-opacity="0.27" stroke-width="2.22222"/>
<line y1="-1.11111" x2="68.4869" y2="-1.11111" transform="matrix(0.991 -0.133859 0.700202 0.713945 339.04 489.652)" stroke="#D8B38F" stroke-opacity="0.27" stroke-width="2.22222"/>
<line y1="-1.11111" x2="71.2812" y2="-1.11111" transform="matrix(0.997866 -0.0652977 0.429152 0.903232 499.114 487.14)" stroke="#D8B38F" stroke-opacity="0.27" stroke-width="2.22222"/>
<line y1="-1.11111" x2="63.9695" y2="-1.11111" transform="matrix(-0.977807 -0.209508 0.841205 -0.540717 1231.35 491.328)" stroke="#D8B38F" stroke-opacity="0.27" stroke-width="2.22222"/>
<line y1="-1.11111" x2="57.949" y2="-1.11111" transform="matrix(-0.954778 -0.297319 0.914546 -0.404482 1388.46 493.842)" stroke="#D8B38F" stroke-opacity="0.27" stroke-width="2.22222"/>
<line y1="-1.11111" x2="50.7642" y2="-1.11111" transform="matrix(-0.914546 -0.404482 0.954778 -0.297319 1544.28 495.517)" stroke="#D8B38F" stroke-opacity="0.27" stroke-width="2.22222"/>
<line y1="-1.11111" x2="42.9302" y2="-1.11111" transform="matrix(-0.841204 -0.540717 0.977807 -0.209508 1699.07 496.354)" stroke="#D8B38F" stroke-opacity="0.27" stroke-width="2.22222"/>
<line x1="751.084" y1="485.74" x2="678.858" y2="485.74" stroke="#D8B38F" stroke-opacity="0.27" stroke-width="2.22222"/>
<line y1="-1.11111" x2="71.2812" y2="-1.11111" transform="matrix(-0.997866 -0.0652977 0.429152 -0.903232 912.767 487.14)" stroke="#D8B38F" stroke-opacity="0.27" stroke-width="2.22222"/>
<line y1="-1.11111" x2="68.4869" y2="-1.11111" transform="matrix(-0.991 -0.133859 0.700202 -0.713945 1072.84 489.652)" stroke="#D8B38F" stroke-opacity="0.27" stroke-width="2.22222"/>
<line y1="-1.11111" x2="63.9695" y2="-1.11111" transform="matrix(0.977807 -0.209507 0.841205 0.540716 18.0303 538.236)" stroke="#D8B38F" stroke-opacity="0.27" stroke-width="2.22222"/>
<line y1="-1.11111" x2="68.4869" y2="-1.11111" transform="matrix(0.991 -0.133859 0.700202 0.713945 176.542 536.561)" stroke="#D8B38F" stroke-opacity="0.27" stroke-width="2.22222"/>
<line y1="-1.11111" x2="71.2811" y2="-1.11111" transform="matrix(0.997866 -0.0652977 0.429152 0.903232 336.616 534.047)" stroke="#D8B38F" stroke-opacity="0.27" stroke-width="2.22222"/>
<line y1="-1.11111" x2="63.9695" y2="-1.11111" transform="matrix(-0.977807 -0.209508 0.841205 -0.540717 1068.86 538.236)" stroke="#D8B38F" stroke-opacity="0.27" stroke-width="2.22222"/>
<line y1="-1.11111" x2="57.9491" y2="-1.11111" transform="matrix(-0.954778 -0.29732 0.914546 -0.404482 1225.94 540.75)" stroke="#D8B38F" stroke-opacity="0.27" stroke-width="2.22222"/>
<line y1="-1.11111" x2="50.7642" y2="-1.11111" transform="matrix(-0.914546 -0.404482 0.954778 -0.297319 1381.78 542.424)" stroke="#D8B38F" stroke-opacity="0.27" stroke-width="2.22222"/>
<line y1="-1.11111" x2="42.9303" y2="-1.11111" transform="matrix(-0.841206 -0.540716 0.977807 -0.209507 1536.55 543.261)" stroke="#D8B38F" stroke-opacity="0.27" stroke-width="2.22222"/>
<line y1="-1.11111" x2="35.2796" y2="-1.11111" transform="matrix(-0.700202 -0.713945 0.991 -0.133859 1690.51 544.1)" stroke="#D8B38F" stroke-opacity="0.27" stroke-width="2.22222"/>
<line x1="588.586" y1="532.645" x2="516.36" y2="532.645" stroke="#D8B38F" stroke-opacity="0.27" stroke-width="2.22222"/>
<line y1="-1.11111" x2="71.2812" y2="-1.11111" transform="matrix(-0.997866 -0.0652977 0.429152 -0.903232 750.269 534.047)" stroke="#D8B38F" stroke-opacity="0.27" stroke-width="2.22222"/>
<line y1="-1.11111" x2="68.487" y2="-1.11111" transform="matrix(-0.991 -0.133859 0.700203 -0.713944 910.344 536.561)" stroke="#D8B38F" stroke-opacity="0.27" stroke-width="2.22222"/>
<line y1="-1.11111" x2="68.4869" y2="-1.11111" transform="matrix(0.991 -0.133859 0.700202 0.713944 14.0205 583.467)" stroke="#D8B38F" stroke-opacity="0.27" stroke-width="2.22222"/>
<line y1="-1.11111" x2="71.2812" y2="-1.11111" transform="matrix(0.997866 -0.0652977 0.429152 0.903232 174.095 580.956)" stroke="#D8B38F" stroke-opacity="0.27" stroke-width="2.22222"/>
<line y1="-1.11111" x2="63.9695" y2="-1.11111" transform="matrix(-0.977807 -0.209508 0.841204 -0.540717 906.334 585.145)" stroke="#D8B38F" stroke-opacity="0.27" stroke-width="2.22222"/>
<line y1="-1.11111" x2="57.9492" y2="-1.11111" transform="matrix(-0.954778 -0.297319 0.914546 -0.404481 1063.44 587.655)" stroke="#D8B38F" stroke-opacity="0.27" stroke-width="2.22222"/>
<line y1="-1.11111" x2="50.7642" y2="-1.11111" transform="matrix(-0.914546 -0.404482 0.954778 -0.297319 1219.28 589.33)" stroke="#D8B38F" stroke-opacity="0.27" stroke-width="2.22222"/>
<line y1="-1.11111" x2="42.9303" y2="-1.11111" transform="matrix(-0.841206 -0.540716 0.977807 -0.209507 1374.05 590.169)" stroke="#D8B38F" stroke-opacity="0.27" stroke-width="2.22222"/>
<line y1="-1.11111" x2="35.2796" y2="-1.11111" transform="matrix(-0.700202 -0.713945 0.991 -0.133859 1527.99 591.008)" stroke="#D8B38F" stroke-opacity="0.27" stroke-width="2.22222"/>
<line y1="-1.11111" x2="29.225" y2="-1.11111" transform="matrix(-0.429153 -0.903232 0.997866 -0.0652976 1681.38 591.844)" stroke="#D8B38F" stroke-opacity="0.27" stroke-width="2.22222"/>
<line x1="426.065" y1="579.553" x2="353.839" y2="579.553" stroke="#D8B38F" stroke-opacity="0.27" stroke-width="2.22222"/>
<line y1="-1.11111" x2="71.2812" y2="-1.11111" transform="matrix(-0.997866 -0.0652977 0.429152 -0.903232 587.749 580.956)" stroke="#D8B38F" stroke-opacity="0.27" stroke-width="2.22222"/>
<line y1="-1.11111" x2="68.487" y2="-1.11111" transform="matrix(-0.991 -0.133859 0.700203 -0.713944 747.822 583.467)" stroke="#D8B38F" stroke-opacity="0.27" stroke-width="2.22222"/>
<line y1="-1.11111" x2="71.2812" y2="-1.11111" transform="matrix(0.997866 -0.0652977 0.429152 0.903232 11.5967 627.861)" stroke="#D8B38F" stroke-opacity="0.27" stroke-width="2.22222"/>
<line y1="-1.11111" x2="63.9695" y2="-1.11111" transform="matrix(-0.977807 -0.209508 0.841204 -0.540717 743.836 632.051)" stroke="#D8B38F" stroke-opacity="0.27" stroke-width="2.22222"/>
<line y1="-1.11111" x2="57.9492" y2="-1.11111" transform="matrix(-0.954778 -0.29732 0.914546 -0.404483 900.921 634.563)" stroke="#D8B38F" stroke-opacity="0.27" stroke-width="2.22222"/>
<line y1="-1.11111" x2="50.7642" y2="-1.11111" transform="matrix(-0.914546 -0.404482 0.954778 -0.297319 1056.76 636.238)" stroke="#D8B38F" stroke-opacity="0.27" stroke-width="2.22222"/>
<line y1="-1.11111" x2="42.9303" y2="-1.11111" transform="matrix(-0.841205 -0.540716 0.977807 -0.209507 1211.53 637.077)" stroke="#D8B38F" stroke-opacity="0.27" stroke-width="2.22222"/>
<line y1="-1.11111" x2="35.2797" y2="-1.11111" transform="matrix(-0.700204 -0.713943 0.991001 -0.133858 1365.49 637.914)" stroke="#D8B38F" stroke-opacity="0.27" stroke-width="2.22222"/>
<line y1="-1.11111" x2="29.225" y2="-1.11111" transform="matrix(-0.429153 -0.903232 0.997866 -0.0652975 1518.88 638.752)" stroke="#D8B38F" stroke-opacity="0.27" stroke-width="2.22222"/>
<line x1="1670.87" y1="638.752" x2="1670.87" y2="611.948" stroke="#D8B38F" stroke-opacity="0.27" stroke-width="2.22222"/>
<line x1="263.566" y1="626.459" x2="191.34" y2="626.459" stroke="#D8B38F" stroke-opacity="0.27" stroke-width="2.22222"/>
<line y1="-1.11111" x2="71.2812" y2="-1.11111" transform="matrix(-0.997866 -0.0652977 0.429152 -0.903232 425.25 627.861)" stroke="#D8B38F" stroke-opacity="0.27" stroke-width="2.22222"/>
<line y1="-1.11111" x2="68.4869" y2="-1.11111" transform="matrix(-0.991 -0.133859 0.700202 -0.713944 585.324 630.375)" stroke="#D8B38F" stroke-opacity="0.27" stroke-width="2.22222"/>
<line y1="-1.11111" x2="63.9695" y2="-1.11111" transform="matrix(-0.977807 -0.209507 0.841206 -0.540715 581.315 678.958)" stroke="#D8B38F" stroke-opacity="0.27" stroke-width="2.22222"/>
<line y1="-1.11111" x2="57.9492" y2="-1.11111" transform="matrix(-0.954778 -0.297319 0.914546 -0.404481 738.422 681.47)" stroke="#D8B38F" stroke-opacity="0.27" stroke-width="2.22222"/>
<line y1="-1.11111" x2="50.7642" y2="-1.11111" transform="matrix(-0.914546 -0.404482 0.954778 -0.297319 894.262 683.146)" stroke="#D8B38F" stroke-opacity="0.27" stroke-width="2.22222"/>
<line y1="-1.11111" x2="42.9303" y2="-1.11111" transform="matrix(-0.841205 -0.540716 0.977807 -0.209507 1049.04 683.982)" stroke="#D8B38F" stroke-opacity="0.27" stroke-width="2.22222"/>
<line y1="-1.11111" x2="35.2796" y2="-1.11111" transform="matrix(-0.700202 -0.713945 0.991 -0.133859 1202.97 684.821)" stroke="#D8B38F" stroke-opacity="0.27" stroke-width="2.22222"/>
<line y1="-1.11111" x2="29.225" y2="-1.11111" transform="matrix(-0.429152 -0.903232 0.997866 -0.0652977 1356.36 685.658)" stroke="#D8B38F" stroke-opacity="0.27" stroke-width="2.22222"/>
<line x1="1508.35" y1="685.658" x2="1508.35" y2="658.854" stroke="#D8B38F" stroke-opacity="0.27" stroke-width="2.22222"/>
<line y1="-1.11111" x2="29.225" y2="-1.11111" transform="matrix(0.429152 -0.903232 0.997866 0.0652977 1662.58 685.658)" stroke="#D8B38F" stroke-opacity="0.27" stroke-width="2.22222"/>
<line x1="102.227" y1="669.111" x2="30.0002" y2="669.111" stroke="#D8B38F" stroke-opacity="0.27" stroke-width="2.22222"/>
<line y1="-1.11111" x2="71.2812" y2="-1.11111" transform="matrix(-0.997866 -0.0652977 0.429152 -0.903232 262.729 674.77)" stroke="#D8B38F" stroke-opacity="0.27" stroke-width="2.22222"/>
<line y1="-1.11111" x2="68.4869" y2="-1.11111" transform="matrix(-0.991 -0.133859 0.700202 -0.713945 422.803 677.283)" stroke="#D8B38F" stroke-opacity="0.27" stroke-width="2.22222"/>
<line y1="-1.11111" x2="35.2796" y2="-1.11111" transform="matrix(0.700202 -0.713945 0.991 0.133859 1653.46 731.728)" stroke="#D8B38F" stroke-opacity="0.27" stroke-width="2.22222"/>
<line y1="-1.11111" x2="63.9695" y2="-1.11111" transform="matrix(-0.977807 -0.209508 0.841204 -0.540717 418.816 710.864)" stroke="#D8B38F" stroke-opacity="0.27" stroke-width="2.22222"/>
<line y1="-1.11111" x2="57.9492" y2="-1.11111" transform="matrix(-0.954778 -0.29732 0.914546 -0.404483 575.901 728.378)" stroke="#D8B38F" stroke-opacity="0.27" stroke-width="2.22222"/>
<line y1="-1.11111" x2="50.7642" y2="-1.11111" transform="matrix(-0.914546 -0.404482 0.954778 -0.297319 731.74 730.053)" stroke="#D8B38F" stroke-opacity="0.27" stroke-width="2.22222"/>
<line y1="-1.11111" x2="42.9302" y2="-1.11111" transform="matrix(-0.841206 -0.540715 0.977807 -0.209507 886.515 730.891)" stroke="#D8B38F" stroke-opacity="0.27" stroke-width="2.22222"/>
<line y1="-1.11111" x2="35.2796" y2="-1.11111" transform="matrix(-0.700202 -0.713945 0.991 -0.133859 1040.47 731.728)" stroke="#D8B38F" stroke-opacity="0.27" stroke-width="2.22222"/>
<line y1="-1.11111" x2="29.225" y2="-1.11111" transform="matrix(-0.429153 -0.903232 0.997866 -0.0652975 1193.87 732.566)" stroke="#D8B38F" stroke-opacity="0.27" stroke-width="2.22222"/>
<line x1="1345.85" y1="732.566" x2="1345.85" y2="705.762" stroke="#D8B38F" stroke-opacity="0.27" stroke-width="2.22222"/>
<line y1="-1.11111" x2="29.2249" y2="-1.11111" transform="matrix(0.429149 -0.903234 0.997866 0.0652983 1500.06 732.566)" stroke="#D8B38F" stroke-opacity="0.27" stroke-width="2.22222"/>
<line y1="-1.11111" x2="35.2796" y2="-1.11111" transform="matrix(0.700202 -0.713945 0.991 0.133859 1490.96 778.636)" stroke="#D8B38F" stroke-opacity="0.27" stroke-width="2.22222"/>
<line y1="-1.11111" x2="42.9303" y2="-1.11111" transform="matrix(0.841206 -0.540716 0.977807 0.209507 1644.89 777.797)" stroke="#D8B38F" stroke-opacity="0.27" stroke-width="2.22222"/>
<line y1="-1.11111" x2="42.9303" y2="-1.11111" transform="matrix(-0.951133 -0.308783 0.892271 -0.451501 726.376 755.82)" stroke="#D8B38F" stroke-opacity="0.27" stroke-width="2.22222"/>
<line y1="-1.11111" x2="35.2796" y2="-1.11111" transform="matrix(-0.700202 -0.713945 0.991 -0.133859 877.953 778.636)" stroke="#D8B38F" stroke-opacity="0.27" stroke-width="2.22222"/>
<line y1="-1.11111" x2="29.225" y2="-1.11111" transform="matrix(-0.429153 -0.903232 0.997866 -0.0652975 1031.35 779.475)" stroke="#D8B38F" stroke-opacity="0.27" stroke-width="2.22222"/>
<line x1="1183.33" y1="779.475" x2="1183.33" y2="752.67" stroke="#D8B38F" stroke-opacity="0.27" stroke-width="2.22222"/>
<line y1="-1.11111" x2="29.2249" y2="-1.11111" transform="matrix(0.429149 -0.903234 0.997866 0.0652983 1337.56 779.475)" stroke="#D8B38F" stroke-opacity="0.27" stroke-width="2.22222"/>
<line y1="-1.11111" x2="35.2797" y2="-1.11111" transform="matrix(0.700203 -0.713944 0.991 0.133858 1328.44 825.544)" stroke="#D8B38F" stroke-opacity="0.27" stroke-width="2.22222"/>
<line y1="-1.11111" x2="42.9303" y2="-1.11111" transform="matrix(0.841206 -0.540716 0.977807 0.209507 1482.39 824.705)" stroke="#D8B38F" stroke-opacity="0.27" stroke-width="2.22222"/>
<line y1="-1.11111" x2="50.7642" y2="-1.11111" transform="matrix(0.914546 -0.404482 0.954778 0.297319 1637.17 823.867)" stroke="#D8B38F" stroke-opacity="0.27" stroke-width="2.22222"/>
<line y1="-1.11111" x2="29.225" y2="-1.11111" transform="matrix(0.429153 -0.903232 0.997866 0.0652975 1178 819.396)" stroke="#D8B38F" stroke-opacity="0.27" stroke-width="2.22222"/>
<line y1="-1.11111" x2="57.9492" y2="-1.11111" transform="matrix(0.954778 -0.297319 0.914546 0.404481 1630.49 869.1)" stroke="#D8B38F" stroke-opacity="0.27" stroke-width="2.22222"/>
</svg>
