<svg width="35" height="34" viewBox="0 0 35 34" fill="none" xmlns="http://www.w3.org/2000/svg">
<path fill-rule="evenodd" clip-rule="evenodd" d="M33.5407 15.6979H1.21231C0.543115 15.6979 0 16.2424 0 16.9101C0 17.5793 0.543115 18.1223 1.21231 18.1223H33.5407C34.2099 18.1223 34.753 17.5793 34.753 16.9101C34.753 16.2424 34.2099 15.6979 33.5407 15.6979Z" fill="#D8B38F"/>
<path fill-rule="evenodd" clip-rule="evenodd" d="M21.8221 32.7687V2.82777C21.8221 1.89025 21.3567 1.01254 20.5792 0.485585C19.8017 -0.0397492 18.814 -0.146434 17.9428 0.202711L5.01147 5.37525C3.93817 5.80361 3.2334 6.84457 3.2334 8.00193V32.7687C3.2334 33.4394 3.77652 33.9809 4.44571 33.9809H20.6099C21.2791 33.9809 21.8221 33.4394 21.8221 32.7687ZM9.29497 29.1318H15.7606C16.4298 29.1318 16.9729 28.5886 16.9729 27.9194C16.9729 27.2519 16.4298 26.7071 15.7606 26.7071H9.29497C8.62578 26.7071 8.08265 27.2519 8.08265 27.9194C8.08265 28.5886 8.62578 29.1318 9.29497 29.1318ZM9.29497 23.4742H15.7606C16.4298 23.4742 16.9729 22.9312 16.9729 22.262C16.9729 21.5943 16.4298 21.0496 15.7606 21.0496H9.29497C8.62578 21.0496 8.08265 21.5943 8.08265 22.262C8.08265 22.9312 8.62578 23.4742 9.29497 23.4742ZM9.29497 17.8168H15.7606C16.4298 17.8168 16.9729 17.2737 16.9729 16.6045C16.9729 15.9369 16.4298 15.3922 15.7606 15.3922H9.29497C8.62578 15.3922 8.08265 15.9369 8.08265 16.6045C8.08265 17.2737 8.62578 17.8168 9.29497 17.8168ZM9.29497 12.1593H15.7606C16.4298 12.1593 16.9729 11.6162 16.9729 10.947C16.9729 10.2795 16.4298 9.73473 15.7606 9.73473H9.29497C8.62578 9.73473 8.08265 10.2795 8.08265 10.947C8.08265 11.6162 8.62578 12.1593 9.29497 12.1593Z" fill="#D8B38F"/>
<path fill-rule="evenodd" clip-rule="evenodd" d="M23.4405 4.70935V28.5516C23.4405 28.9862 23.3436 29.397 23.1689 29.7638H30.3102C30.9795 29.7638 31.5227 29.2223 31.5227 28.5516V7.53807C31.5227 5.97662 30.2553 4.70935 28.6938 4.70935H23.4405Z" fill="#D8B38F"/>
</svg>
