<svg width="20" height="17" viewBox="0 0 20 17" fill="none" xmlns="http://www.w3.org/2000/svg">
<path d="M11.2456 0.29693L18.7144 7.42623C18.9124 7.62426 19.0115 7.86473 19.0115 8.14764C19.0115 8.43055 18.9124 8.67102 18.7144 8.86906L11.2456 15.9984C10.7364 16.3944 10.2554 16.3944 9.80278 15.9984C9.40671 15.4891 9.40671 15.0082 9.80278 14.5555L15.4468 9.16611H1.01847C0.396072 9.10953 0.0565817 8.77004 0 8.14764C0.0565817 7.52524 0.396072 7.18575 1.01847 7.12917H15.4468L9.80278 1.73976C9.40671 1.28711 9.40671 0.806166 9.80278 0.29693C10.2554 -0.0991421 10.7364 -0.0991421 11.2456 0.29693Z" fill="#0E121D"/>
</svg>
