<svg width="19" height="17" viewBox="0 0 19 17" fill="none" xmlns="http://www.w3.org/2000/svg">
<path d="M18.969 8.14764C18.9124 8.77004 18.5729 9.10953 17.9505 9.16611H3.56465L9.20867 14.5555C9.60475 15.0082 9.60475 15.4891 9.20867 15.9984C8.75602 16.3944 8.27507 16.3944 7.76584 15.9984L0.297054 8.86906C0.099018 8.67102 0 8.43055 0 8.14764C0 7.86473 0.099018 7.62426 0.297054 7.42623L7.76584 0.29693C8.27507 -0.0991421 8.75602 -0.0991421 9.20867 0.29693C9.60475 0.806166 9.60475 1.28711 9.20867 1.73976L3.56465 7.12917H17.993C18.5871 7.18575 18.9124 7.52524 18.969 8.14764Z" fill="#0E121D"/>
</svg>
