<svg width="32" height="30" viewBox="0 0 32 30" fill="none" xmlns="http://www.w3.org/2000/svg">
<path d="M15.9994 12.6667C14.4158 12.6667 12.8322 13.2318 11.6267 14.362C10.4587 15.4571 9.81543 16.913 9.81543 18.4616C9.81543 20.0101 10.4587 21.466 11.6267 22.561C14.0379 24.8214 17.961 24.8214 20.3722 22.561C21.5402 21.466 22.1834 20.0101 22.1834 18.4616C22.1834 16.913 21.5402 15.4571 20.3722 14.362C19.1666 13.2319 17.5831 12.6667 15.9994 12.6667ZM14.9239 21.6322L12.1387 19.0211L13.4533 17.7886L14.9239 19.1673L18.5224 15.7937L19.8371 17.0262L14.9239 21.6322Z" fill="#D8B38F"/>
<path d="M28.0896 13.4956L15.9998 4.41138L3.8707 13.5252V28.257H1.06445V30H30.9352V28.257H28.0895V13.4956H28.0896ZM21.6872 23.7935C20.1192 25.2635 18.0595 25.9985 15.9998 25.9985C13.9401 25.9985 11.8805 25.2635 10.3125 23.7935C8.79327 22.3693 7.95664 20.4757 7.95664 18.4616C7.95664 16.4474 8.79333 14.5538 10.3125 13.1296C13.4485 10.1896 18.5512 10.1896 21.6872 13.1296C23.2064 14.5538 24.043 16.4474 24.043 18.4616C24.043 20.4757 23.2064 22.3693 21.6872 23.7935Z" fill="#D8B38F"/>
<path d="M16 2.23371L30.8373 13.3825L32 12.0224L26.7214 8.05611V0H21.4803V4.11785L16 0L0 12.0224L1.16269 13.3825L16 2.23371Z" fill="#D8B38F"/>
</svg>
